<?xml version="1.0" encoding="utf-8"?>
<!-- Generator: Adobe Illustrator 16.0.0, SVG Export Plug-In . SVG Version: 6.00 Build 0)  -->
<!DOCTYPE svg PUBLIC "-//W3C//DTD SVG 1.1//EN" "http://www.w3.org/Graphics/SVG/1.1/DTD/svg11.dtd">
<svg version="1.1" id="Layer_1" xmlns="http://www.w3.org/2000/svg" xmlns:xlink="http://www.w3.org/1999/xlink" x="0px" y="0px"
	 width="25.577px" height="16.496px" viewBox="0 0 25.577 16.496" enable-background="new 0 0 25.577 16.496" xml:space="preserve">
<g>
	<defs>
		<rect id="SVGID_1_" x="-17.69" y="-26.938" width="320" height="568.889"/>
	</defs>
	<clipPath id="SVGID_2_">
		<use xlink:href="#SVGID_1_"  display="none" overflow="visible"/>
	</clipPath>
	<path clip-path="url(#SVGID_2_)" fill="#FFFFFF" d="M15.189,6.097H7.787l2.094-2.346c0.136-0.153,0.123-0.386-0.03-0.521
		C9.699,3.095,9.465,3.107,9.329,3.259L6.97,5.902c-0.288,0.322-0.288,0.807,0,1.13l2.359,2.643
		c0.073,0.082,0.175,0.124,0.276,0.124c0.087,0,0.175-0.031,0.246-0.096c0.152-0.135,0.166-0.368,0.03-0.521L7.787,6.835h7.402
		c1.596,0,2.894,1.299,2.894,2.894c0,1.596-1.298,2.893-2.894,2.893H13.43c-0.204,0-0.369,0.166-0.369,0.369
		c0,0.204,0.165,0.369,0.369,0.369h1.759c2.003,0,3.633-1.629,3.633-3.631S17.192,6.097,15.189,6.097"/>
	<path clip-path="url(#SVGID_2_)" fill="none" stroke="#FFFFFF" stroke-width="2" stroke-miterlimit="10" d="M24.577,8.247
		c0,4.004-3.247,7.249-7.252,7.249H8.251C4.247,15.496,1,12.251,1,8.247C1,4.244,4.247,1,8.251,1h9.073
		C21.331,1,24.577,4.244,24.577,8.247z"/>
</g>
</svg>
