<?xml version="1.0" encoding="utf-8"?>
<!-- Generator: Adobe Illustrator 16.0.0, SVG Export Plug-In . SVG Version: 6.00 Build 0)  -->
<!DOCTYPE svg PUBLIC "-//W3C//DTD SVG 1.1//EN" "http://www.w3.org/Graphics/SVG/1.1/DTD/svg11.dtd">
<svg version="1.1" id="Layer_1" xmlns="http://www.w3.org/2000/svg" xmlns:xlink="http://www.w3.org/1999/xlink" x="0px" y="0px"
	 width="24.151px" height="15.068px" viewBox="0 0 24.151 15.068" enable-background="new 0 0 24.151 15.068" xml:space="preserve">
<line display="none" fill="none" x1="-18.544" y1="540.475" x2="-18.544" y2="-27.525"/>
<linearGradient id="SVGID_1_" gradientUnits="userSpaceOnUse" x1="-536.208" y1="1217.4878" x2="-535.9121" y2="1217.4878" gradientTransform="matrix(1.000000e-007 -1920 -1920 -1.000000e-007 2337554.75 -1028979.6875)">
	<stop  offset="0" style="stop-color:#2A3487"/>
	<stop  offset="0.1527" style="stop-color:#2A3487"/>
	<stop  offset="0.2572" style="stop-color:#2A3789"/>
	<stop  offset="0.3655" style="stop-color:#2C3E8C"/>
	<stop  offset="0.4755" style="stop-color:#304A92"/>
	<stop  offset="0.5867" style="stop-color:#36599B"/>
	<stop  offset="0.699" style="stop-color:#406DA7"/>
	<stop  offset="0.812" style="stop-color:#4D88B7"/>
	<stop  offset="0.9236" style="stop-color:#5DACCD"/>
	<stop  offset="1" style="stop-color:#6BCCE0"/>
</linearGradient>
<line display="none" fill="url(#SVGID_1_)" x1="-18.335" y1="540.475" x2="-18.335" y2="-27.525"/>
<line display="none" fill="none" x1="-18.335" y1="540.475" x2="-18.335" y2="-27.525"/>
<line display="none" fill="none" x1="-18.335" y1="-27.525" x2="-18.335" y2="540.475"/>
<line display="none" fill="none" x1="-18.544" y1="540.475" x2="-18.544" y2="-27.525"/>
<line display="none" fill="none" x1="-18.544" y1="540.475" x2="-18.544" y2="-27.525"/>
<line display="none" fill="none" x1="-18.544" y1="540.475" x2="-18.544" y2="-27.525"/>
<line display="none" fill="none" x1="-18.544" y1="540.475" x2="-18.544" y2="-27.525"/>
<line display="none" fill="none" x1="-18.544" y1="540.475" x2="-18.544" y2="-27.525"/>
<line display="none" fill="#FFFFFF" x1="-18.496" y1="-27.524" x2="-18.496" y2="43.475"/>
<line display="none" fill="none" x1="-18.544" y1="540.475" x2="-18.544" y2="-27.525"/>
<line display="none" fill="none" x1="-18.544" y1="540.475" x2="-18.544" y2="-27.525"/>
<line display="none" fill="none" x1="-18.544" y1="540.475" x2="-18.544" y2="-27.525"/>
<path fill="#2A3487" d="M14.474,5.387H7.078L9.17,3.043c0.136-0.152,0.122-0.385-0.03-0.521C8.989,2.387,8.755,2.4,8.62,2.553
	L6.262,5.192c-0.287,0.321-0.287,0.806,0,1.128L8.62,8.959c0.073,0.082,0.175,0.123,0.275,0.123c0.087,0,0.175-0.031,0.245-0.093
	C9.292,8.853,9.306,8.62,9.17,8.468L7.078,6.125h7.396c1.594,0,2.892,1.295,2.892,2.889c0,1.593-1.298,2.888-2.892,2.888h-1.758
	c-0.203,0-0.369,0.165-0.369,0.369s0.166,0.369,0.369,0.369h1.758c2.002,0,3.63-1.627,3.63-3.626
	C18.104,7.014,16.476,5.387,14.474,5.387"/>
<path fill="#2A3487" d="M16.609,15.068H7.542C3.384,15.068,0,11.688,0,7.534S3.384,0,7.542,0h9.066c4.158,0,7.542,3.38,7.542,7.534
	S20.767,15.068,16.609,15.068 M7.542,0.591c-3.832,0-6.95,3.115-6.95,6.943s3.118,6.942,6.95,6.942h9.066
	c3.832,0,6.949-3.114,6.949-6.942s-3.117-6.943-6.949-6.943H7.542z"/>
<line display="none" fill="none" x1="-18.544" y1="540.475" x2="-18.544" y2="-27.525"/>
<line display="none" fill="none" x1="-18.544" y1="540.475" x2="-18.544" y2="-27.525"/>
<line display="none" fill="none" x1="-18.544" y1="540.475" x2="-18.544" y2="-27.525"/>
<line display="none" fill="none" x1="-18.544" y1="540.475" x2="-18.544" y2="-27.525"/>
</svg>
