<?xml version="1.0" encoding="utf-8"?>
<!-- Generator: Adobe Illustrator 16.0.0, SVG Export Plug-In . SVG Version: 6.00 Build 0)  -->
<!DOCTYPE svg PUBLIC "-//W3C//DTD SVG 1.1//EN" "http://www.w3.org/Graphics/SVG/1.1/DTD/svg11.dtd">
<svg version="1.1" id="Layer_1" xmlns="http://www.w3.org/2000/svg" xmlns:xlink="http://www.w3.org/1999/xlink" x="0px" y="0px"
	 width="71.679px" height="71.531px" viewBox="0 0 71.679 71.531" enable-background="new 0 0 71.679 71.531" xml:space="preserve">
<path fill="#6BCCE0" d="M35.84,71.531C16.078,71.531,0,55.486,0,35.766C0,16.044,16.078,0,35.84,0
	c19.762,0,35.838,16.044,35.838,35.766C71.679,55.486,55.603,71.531,35.84,71.531 M35.84,0.887
	c-19.272,0-34.951,15.646-34.951,34.878c0,19.232,15.679,34.878,34.951,34.878c19.272,0,34.95-15.646,34.95-34.878
	C70.79,16.534,55.112,0.887,35.84,0.887"/>
<path fill="#FFFFFF" d="M67.927,35.766c0-17.685-14.365-32.021-32.086-32.021c-17.722,0-32.088,14.336-32.088,32.021
	S18.118,67.787,35.84,67.787C53.562,67.787,67.927,53.45,67.927,35.766"/>
<path fill="#2A3487" d="M50.516,32.86H27.474l0.215-0.864c0.367-1.486,0.507-2.92,0.407-4.146c-0.159-1.968-0.929-3.346-2.171-3.883
	c-0.359-0.155-0.746-0.235-1.149-0.235c-2.551,0-5.528,2.912-7.408,7.245l-0.291,0.697l-0.275,0.111
	c-0.295,0.111-0.559,0.267-0.79,0.458c-0.643,0.534-1.01,1.354-1.01,2.25v6.425c0,0.648,0.184,1.25,0.535,1.736l0.188,0.259
	l-0.076,0.312c-0.032,0.127-0.056,0.266-0.072,0.422c-0.064,0.828,0.259,1.672,0.886,2.298l4.822,4.808
	c0.726,0.729,1.74,1.039,2.694,0.828l0.352-0.084l0.267,0.243c0.522,0.466,1.226,0.726,1.976,0.726h20.283
	c0.32,0,0.6-0.228,0.664-0.538l1.353-6.763h1.645c3.396,0,6.163-2.761,6.163-6.154C56.679,35.62,53.912,32.86,50.516,32.86
	 M18.913,30.841c1.812-3.788,4.307-5.768,5.835-5.768c0.235,0,0.455,0.043,0.65,0.131c0.858,0.371,1.373,1.673,1.373,3.489
	c0,1.131-0.204,2.414-0.587,3.708L26.005,33l-7.484-1.334L18.913,30.841z M16.75,34.493c0-0.382,0.135-0.709,0.383-0.916
	c0.248-0.203,0.587-0.287,0.97-0.215l7.58,1.354l-8.932,6.361V34.493z M24.313,49.369c-0.248,0.348-0.583,0.534-0.942,0.534
	c-0.303,0-0.599-0.132-0.85-0.382l-4.817-4.809c-0.275-0.274-0.411-0.604-0.383-0.932c0.028-0.33,0.215-0.633,0.53-0.855l9.22-6.568
	c0.315-0.228,0.73-0.351,1.173-0.351c0.575,0,1.129,0.211,1.489,0.57l0.938,0.939c0.371,0.371,0.587,0.94,0.571,1.522v0.063
	c-0.016,0.402-0.14,0.772-0.347,1.067L24.313,49.369z M33.928,50.342c-0.204,0.242-0.531,0.382-0.914,0.382h-7.024l0.332-0.474
	l6.381-8.922l1.441,8.045C34.215,49.748,34.139,50.091,33.928,50.342 M34.506,41.487l0.599-0.18
	c1.309-0.386,2.606-0.589,3.743-0.589c1.832,0,3.098,0.502,3.477,1.382c0.08,0.187,0.124,0.397,0.124,0.626v0.004
	c0,1.784-2.431,4.233-5.776,5.83l-0.826,0.398L34.506,41.487z M45.978,50.724h-9.787l1.197-0.569
	c4.966-2.354,7.715-6.034,6.543-8.75c-0.6-1.375-2.101-2.231-4.228-2.402c-1.505-0.123-3.32,0.107-5.148,0.648l-0.216,0.064
	l-0.12-0.188c-0.216-0.33-0.471-0.633-0.766-0.9l-0.08-0.075l-0.012-0.108c-0.12-0.939-0.535-1.808-1.173-2.444l-1.397-1.395h18.416
	L45.978,50.724z M50.516,43.817h-1.373l1.932-9.643l0.723,0.207c2.079,0.574,3.536,2.478,3.536,4.628
	C55.333,41.662,53.169,43.817,50.516,43.817"/>
<path fill="#2A3487" d="M45.343,28.056c0,0.426-0.348,0.773-0.773,0.773c-0.428,0-0.775-0.347-0.775-0.773
	c0-1-0.415-1.461-1.146-2.194c-0.71-0.709-1.597-1.589-1.597-3.286c0-1.693,0.887-2.573,1.597-3.282
	c0.144-0.147,0.339-0.227,0.547-0.227c0.212,0,0.399,0.08,0.547,0.227c0.304,0.298,0.304,0.789,0,1.091
	c-0.73,0.732-1.146,1.195-1.146,2.19c0,1,0.415,1.462,1.146,2.195C44.456,25.479,45.343,26.364,45.343,28.056"/>
<path fill="#2A3487" d="M37.329,28.056c0,0.426-0.346,0.773-0.773,0.773c-0.427,0-0.775-0.347-0.775-0.773
	c0-1-0.415-1.461-1.146-2.194c-0.709-0.709-1.596-1.589-1.596-3.286c0-1.693,0.887-2.573,1.596-3.282
	c0.144-0.147,0.34-0.227,0.547-0.227c0.211,0,0.399,0.08,0.547,0.227c0.303,0.298,0.303,0.789,0,1.091
	c-0.731,0.732-1.146,1.195-1.146,2.19c0,1,0.415,1.462,1.146,2.195C36.444,25.479,37.329,26.364,37.329,28.056"/>
</svg>
