<?xml version="1.0" encoding="utf-8"?>
<!-- Generator: Adobe Illustrator 16.0.0, SVG Export Plug-In . SVG Version: 6.00 Build 0)  -->
<!DOCTYPE svg PUBLIC "-//W3C//DTD SVG 1.1//EN" "http://www.w3.org/Graphics/SVG/1.1/DTD/svg11.dtd">
<svg version="1.1" id="Layer_1" xmlns="http://www.w3.org/2000/svg" xmlns:xlink="http://www.w3.org/1999/xlink" x="0px" y="0px"
	 width="36.372px" height="36.387px" viewBox="0 0 36.372 36.387" enable-background="new 0 0 36.372 36.387" xml:space="preserve">
<path display="none" fill="none" d="M-118.351,47.852"/>
<path display="none" fill="none" d="M201.649,47.852"/>
<path display="none" fill="none" d="M-118.351,47.852"/>
<path display="none" fill="none" d="M201.649,47.852"/>
<path display="none" fill="none" d="M-118.351,47.852"/>
<path display="none" fill="none" d="M201.649,47.852"/>
<path fill="#FFFFFF" d="M18.186,0C8.142,0,0,8.146,0,18.193"/>
<path fill="#FFFFFF" d="M0,18.193c0,10.048,8.142,18.193,18.186,18.193c10.043,0,18.186-8.146,18.186-18.193S28.229,0,18.186,0"/>
<polyline fill="none" points="0,36.387 36.372,36.387 36.372,0 "/>
<path display="none" fill="none" d="M-118.351,47.852"/>
<path display="none" fill="none" d="M201.649,47.852"/>
<path display="none" fill="none" d="M-118.351,47.852"/>
<path display="none" fill="none" d="M201.649,47.852"/>
<path display="none" fill="none" d="M-118.351,47.852"/>
<path display="none" fill="none" d="M201.649,47.852"/>
<path display="none" fill="none" d="M-118.351,47.852"/>
<path display="none" fill="none" d="M201.649,47.852"/>
<path display="none" fill="#2A3487" d="M14.027,29.836l-3.272-5.67h-0.256c-1.683,0-3.052-1.241-3.052-2.77V11.319
	c0-1.526,1.37-2.768,3.052-2.768h14.723c1.684,0,3.052,1.241,3.052,2.768v10.077c0,1.528-1.368,2.77-3.052,2.77h-7.923
	L14.027,29.836z M10.499,10.085c-0.837,0-1.518,0.554-1.518,1.234v10.077c0,0.682,0.681,1.235,1.518,1.235h1.139l2.388,4.137
	l2.386-4.137h8.81c0.837,0,1.516-0.555,1.516-1.235V11.319c0-0.681-0.682-1.234-1.516-1.234H10.499z"/>
<line display="none" fill="none" x1="129.649" y1="48.852" x2="-190.351" y2="48.852"/>
<line display="none" fill="none" x1="201.649" y1="47.852" x2="-118.351" y2="47.852"/>
<line display="none" fill="none" x1="-118.351" y1="47.852" x2="201.649" y2="47.852"/>
<path fill="#2A3487" d="M23.292,20.452c-0.4-0.416-0.883-0.639-1.393-0.639c-0.508,0-0.994,0.219-1.41,0.635l-1.303,1.299
	c-0.107-0.058-0.213-0.111-0.316-0.164c-0.148-0.074-0.289-0.145-0.408-0.219c-1.221-0.775-2.33-1.785-3.393-3.092
	c-0.516-0.651-0.861-1.2-1.113-1.757c0.34-0.31,0.652-0.631,0.957-0.94c0.115-0.116,0.23-0.235,0.346-0.351
	c0.865-0.865,0.865-1.987,0-2.854l-1.125-1.125c-0.127-0.129-0.26-0.26-0.383-0.392c-0.248-0.255-0.508-0.52-0.775-0.767
	c-0.4-0.396-0.877-0.606-1.381-0.606c-0.502,0-0.988,0.21-1.4,0.606c-0.004,0.004-0.004,0.004-0.008,0.008L8.785,11.51
	c-0.528,0.528-0.829,1.172-0.894,1.917c-0.1,1.204,0.254,2.326,0.526,3.06c0.668,1.802,1.666,3.472,3.154,5.261
	c1.805,2.157,3.977,3.86,6.457,5.06c0.949,0.449,2.213,0.981,3.627,1.072c0.086,0.004,0.178,0.008,0.26,0.008
	c0.953,0,1.752-0.342,2.379-1.021c0.004-0.009,0.012-0.013,0.016-0.021c0.215-0.26,0.461-0.495,0.721-0.747
	c0.178-0.168,0.359-0.346,0.537-0.53c0.408-0.426,0.623-0.92,0.623-1.428c0-0.511-0.221-1.001-0.635-1.414L23.292,20.452z
	 M24.767,24.794C24.763,24.794,24.763,24.798,24.767,24.794c-0.16,0.174-0.324,0.331-0.502,0.504
	c-0.268,0.256-0.539,0.523-0.795,0.824c-0.416,0.445-0.908,0.656-1.551,0.656c-0.061,0-0.127,0-0.189-0.006
	c-1.225-0.077-2.361-0.555-3.215-0.964c-2.332-1.13-4.381-2.732-6.082-4.767c-1.406-1.693-2.346-3.261-2.969-4.943
	c-0.383-1.026-0.523-1.826-0.461-2.581c0.041-0.481,0.227-0.882,0.568-1.225l1.406-1.405c0.201-0.189,0.416-0.293,0.625-0.293
	c0.262,0,0.471,0.156,0.604,0.288c0.004,0.005,0.008,0.009,0.012,0.013c0.252,0.234,0.49,0.479,0.742,0.738
	c0.129,0.133,0.26,0.264,0.391,0.399l1.125,1.126c0.438,0.437,0.438,0.841,0,1.278c-0.119,0.12-0.234,0.239-0.354,0.354
	c-0.346,0.354-0.676,0.685-1.033,1.006c-0.01,0.009-0.018,0.013-0.021,0.021c-0.355,0.355-0.289,0.701-0.215,0.937
	c0.004,0.012,0.008,0.025,0.012,0.037c0.293,0.709,0.705,1.377,1.332,2.173l0.004,0.004c1.137,1.401,2.336,2.494,3.66,3.331
	c0.168,0.107,0.342,0.194,0.506,0.276c0.148,0.074,0.289,0.145,0.408,0.219c0.018,0.008,0.033,0.021,0.049,0.028
	c0.141,0.07,0.273,0.104,0.408,0.104c0.344,0,0.557-0.215,0.627-0.284l1.41-1.41c0.141-0.141,0.361-0.31,0.623-0.31
	c0.254,0,0.465,0.16,0.594,0.302c0.004,0.004,0.004,0.004,0.008,0.008l2.27,2.271C25.189,23.925,25.189,24.358,24.767,24.794"/>
<path fill="#2A3487" d="M18.412,12.999c1.08,0.181,2.061,0.692,2.846,1.476c0.781,0.783,1.289,1.765,1.475,2.844
	c0.045,0.273,0.279,0.463,0.549,0.463c0.033,0,0.061-0.005,0.094-0.009c0.305-0.049,0.508-0.337,0.457-0.643
	c-0.223-1.307-0.84-2.499-1.785-3.442c-0.943-0.944-2.133-1.563-3.441-1.785c-0.303-0.05-0.588,0.151-0.643,0.452
	C17.91,12.656,18.109,12.948,18.412,12.999"/>
<path fill="#2A3487" d="M27.363,16.969c-0.365-2.152-1.379-4.111-2.938-5.669c-1.557-1.559-3.516-2.572-5.666-2.939
	c-0.301-0.054-0.586,0.151-0.639,0.453c-0.051,0.305,0.152,0.59,0.455,0.644c1.922,0.325,3.674,1.236,5.066,2.626
	c1.395,1.394,2.301,3.146,2.625,5.067c0.047,0.272,0.281,0.462,0.549,0.462c0.033,0,0.063-0.004,0.096-0.008
	C27.21,17.559,27.417,17.27,27.363,16.969"/>
</svg>
