<?xml version="1.0" encoding="utf-8"?>
<!-- Generator: Adobe Illustrator 16.0.0, SVG Export Plug-In . SVG Version: 6.00 Build 0)  -->
<!DOCTYPE svg PUBLIC "-//W3C//DTD SVG 1.1//EN" "http://www.w3.org/Graphics/SVG/1.1/DTD/svg11.dtd">
<svg version="1.1" id="Layer_1" xmlns="http://www.w3.org/2000/svg" xmlns:xlink="http://www.w3.org/1999/xlink" x="0px" y="0px"
	 width="36.355px" height="36.387px" viewBox="0 0 36.355 36.387" enable-background="new 0 0 36.355 36.387" xml:space="preserve">
<path fill="#FFFFFF" d="M0,18.193c0,10.048,8.139,18.193,18.178,18.193s18.178-8.146,18.178-18.193S28.217,0,18.178,0
	S0,8.146,0,18.193"/>
<path fill="#2A3487" d="M23.844,20.526c-0.399-0.416-0.882-0.639-1.392-0.639c-0.507,0-0.993,0.219-1.409,0.635l-1.303,1.299
	c-0.106-0.058-0.213-0.111-0.316-0.164c-0.148-0.074-0.288-0.145-0.408-0.219c-1.219-0.775-2.327-1.785-3.39-3.093
	c-0.516-0.65-0.862-1.199-1.112-1.756c0.337-0.31,0.65-0.631,0.955-0.94c0.116-0.116,0.231-0.235,0.347-0.351
	c0.864-0.865,0.864-1.987,0-2.854L14.69,11.32c-0.128-0.129-0.259-0.26-0.383-0.392c-0.248-0.255-0.507-0.52-0.775-0.767
	c-0.399-0.396-0.877-0.606-1.38-0.606c-0.502,0-0.988,0.21-1.399,0.606c-0.005,0.004-0.005,0.004-0.009,0.008l-1.4,1.414
	c-0.527,0.528-0.829,1.172-0.895,1.917c-0.099,1.204,0.256,2.325,0.527,3.06c0.667,1.802,1.665,3.472,3.151,5.261
	c1.805,2.157,3.975,3.86,6.455,5.06c0.948,0.449,2.213,0.981,3.625,1.072c0.087,0.004,0.177,0.008,0.261,0.008
	c0.951,0,1.75-0.342,2.376-1.022c0.004-0.008,0.013-0.012,0.017-0.021c0.214-0.26,0.461-0.495,0.721-0.747
	c0.178-0.168,0.358-0.346,0.535-0.53c0.409-0.426,0.622-0.92,0.622-1.428c0-0.511-0.218-1.001-0.634-1.414L23.844,20.526z
	 M25.318,24.868C25.314,24.868,25.314,24.872,25.318,24.868c-0.16,0.174-0.325,0.33-0.503,0.504
	c-0.267,0.256-0.538,0.523-0.794,0.824c-0.417,0.445-0.906,0.656-1.549,0.656c-0.063,0-0.128,0-0.19-0.006
	c-1.224-0.077-2.359-0.555-3.213-0.964c-2.332-1.13-4.379-2.732-6.081-4.767c-1.404-1.693-2.343-3.261-2.965-4.943
	C9.64,15.146,9.5,14.347,9.562,13.592c0.041-0.481,0.227-0.882,0.569-1.225l1.404-1.405c0.201-0.189,0.416-0.293,0.625-0.293
	c0.261,0,0.471,0.156,0.603,0.288c0.004,0.005,0.008,0.009,0.012,0.013c0.252,0.234,0.491,0.479,0.741,0.738
	c0.129,0.131,0.261,0.264,0.392,0.399l1.125,1.126c0.437,0.437,0.437,0.841,0,1.278c-0.119,0.119-0.235,0.239-0.354,0.354
	c-0.346,0.354-0.676,0.685-1.033,1.006c-0.008,0.009-0.018,0.013-0.021,0.021c-0.354,0.355-0.288,0.701-0.214,0.937
	c0.004,0.012,0.009,0.025,0.012,0.037c0.293,0.709,0.705,1.377,1.331,2.173l0.004,0.004c1.138,1.401,2.337,2.494,3.658,3.331
	c0.169,0.107,0.343,0.194,0.507,0.276c0.148,0.074,0.288,0.145,0.408,0.219c0.017,0.008,0.033,0.021,0.05,0.028
	c0.14,0.07,0.271,0.104,0.407,0.104c0.342,0,0.557-0.215,0.626-0.284l1.409-1.41c0.141-0.141,0.362-0.31,0.622-0.31
	c0.256,0,0.465,0.16,0.594,0.302c0.004,0.004,0.004,0.004,0.009,0.008l2.269,2.271C25.739,23.999,25.739,24.433,25.318,24.868"/>
<path fill="#2A3487" d="M18.967,13.073c1.079,0.181,2.06,0.692,2.843,1.476c0.782,0.783,1.29,1.765,1.475,2.844
	c0.045,0.273,0.279,0.463,0.548,0.463c0.033,0,0.062-0.005,0.095-0.009c0.304-0.049,0.507-0.337,0.457-0.643
	c-0.223-1.307-0.841-2.499-1.784-3.442c-0.943-0.944-2.134-1.563-3.439-1.785c-0.305-0.05-0.59,0.151-0.643,0.452
	C18.464,12.73,18.662,13.022,18.967,13.073"/>
<path fill="#2A3487" d="M27.913,17.043c-0.365-2.152-1.379-4.111-2.936-5.669c-1.558-1.559-3.515-2.572-5.665-2.939
	c-0.301-0.054-0.585,0.151-0.638,0.453c-0.05,0.305,0.152,0.59,0.456,0.644c1.92,0.325,3.671,1.236,5.063,2.626
	c1.393,1.394,2.299,3.146,2.624,5.067c0.045,0.272,0.28,0.462,0.547,0.462c0.034,0,0.063-0.004,0.096-0.008
	C27.762,17.633,27.967,17.344,27.913,17.043"/>
</svg>
