<?xml version="1.0" encoding="utf-8"?>
<!-- Generator: Adobe Illustrator 16.0.0, SVG Export Plug-In . SVG Version: 6.00 Build 0)  -->
<!DOCTYPE svg PUBLIC "-//W3C//DTD SVG 1.1//EN" "http://www.w3.org/Graphics/SVG/1.1/DTD/svg11.dtd">
<svg version="1.1" id="Layer_1" xmlns="http://www.w3.org/2000/svg" xmlns:xlink="http://www.w3.org/1999/xlink" x="0px" y="0px"
	 width="35.101px" height="35.03px" viewBox="0 0 35.101 35.03" enable-background="new 0 0 35.101 35.03" xml:space="preserve">
<g>
	<defs>
		<rect id="SVGID_1_" x="-142.529" y="-160.374" width="320" height="568"/>
	</defs>
	<clipPath id="SVGID_2_">
		<use xlink:href="#SVGID_1_"  display="none" overflow="visible"/>
	</clipPath>
	<path clip-path="url(#SVGID_2_)" fill="#6BCCE0" d="M17.55,35.03C7.873,35.03,0,27.172,0,17.515C0,7.857,7.873,0,17.55,0
		s17.551,7.857,17.551,17.515C35.101,27.172,27.228,35.03,17.55,35.03 M17.55,0.592c-9.35,0-16.957,7.592-16.957,16.923
		c0,9.332,7.607,16.923,16.957,16.923c9.352,0,16.959-7.592,16.959-16.923C34.509,8.184,26.902,0.592,17.55,0.592"/>
</g>
<g>
	<defs>
		<rect id="SVGID_3_" x="-142.529" y="-160.374" width="320" height="568"/>
	</defs>
	<clipPath id="SVGID_4_">
		<use xlink:href="#SVGID_3_"  display="none" overflow="visible"/>
	</clipPath>
	<path clip-path="url(#SVGID_4_)" fill="#FFFFFF" d="M31.998,17.515c0-7.963-6.469-14.418-14.447-14.418S3.103,9.552,3.103,17.515
		c0,7.963,6.469,14.418,14.447,14.418S31.998,25.478,31.998,17.515 M31.998,17.515c0-7.963-6.469-14.418-14.447-14.418"/>
</g>
<g>
	<defs>
		<rect id="SVGID_5_" x="-142.529" y="-160.374" width="320" height="568"/>
	</defs>
	<clipPath id="SVGID_6_">
		<use xlink:href="#SVGID_5_"  display="none" overflow="visible"/>
	</clipPath>
	<path clip-path="url(#SVGID_6_)" fill="#2A3487" d="M27.361,12.573c0-0.553-0.451-1.002-1.006-1.002h-0.002L8.732,11.595
		c-0.27,0.001-0.523,0.105-0.713,0.295c-0.189,0.19-0.293,0.443-0.293,0.711l0.014,9.882c0,0.269,0.105,0.521,0.295,0.71
		c0.191,0.189,0.443,0.293,0.711,0.293h0.002l17.621-0.024c0.555-0.001,1.006-0.452,1.006-1.006L27.361,12.573z M25.25,12.577
		l-7.699,5.34l-7.713-5.319L25.25,12.577z M20.806,18.925l4.566,3.534L9.714,22.479l4.596-3.555c0.219-0.17,0.258-0.485,0.088-0.705
		c-0.17-0.219-0.486-0.259-0.705-0.089l-4.947,3.829l-0.014-8.903l8.533,5.885c0.088,0.059,0.188,0.089,0.287,0.089
		s0.201-0.03,0.287-0.09l8.516-5.907l0.014,8.926l-4.945-3.828c-0.221-0.17-0.535-0.13-0.707,0.089
		C20.546,18.439,20.587,18.755,20.806,18.925"/>
</g>
</svg>
