<?xml version="1.0" encoding="utf-8"?>
<!-- Generator: Adobe Illustrator 16.0.0, SVG Export Plug-In . SVG Version: 6.00 Build 0)  -->
<!DOCTYPE svg PUBLIC "-//W3C//DTD SVG 1.1//EN" "http://www.w3.org/Graphics/SVG/1.1/DTD/svg11.dtd">
<svg version="1.1" id="Layer_1" xmlns="http://www.w3.org/2000/svg" xmlns:xlink="http://www.w3.org/1999/xlink" x="0px" y="0px"
	 width="36.355px" height="36.387px" viewBox="0 0 36.355 36.387" enable-background="new 0 0 36.355 36.387" xml:space="preserve">
<path fill="#FFFFFF" d="M0,18.193c0,10.048,8.139,18.193,18.178,18.193s18.178-8.146,18.178-18.193S28.217,0,18.178,0
	S0,8.146,0,18.193"/>
<path fill="#2A3487" d="M14.347,28.836l-3.271-5.67H10.82c-1.682,0-3.051-1.241-3.051-2.77V10.319c0-1.526,1.369-2.768,3.051-2.768
	h14.716c1.683,0,3.051,1.241,3.051,2.768v10.077c0,1.528-1.368,2.77-3.051,2.77h-7.92L14.347,28.836z M10.82,9.085
	c-0.837,0-1.518,0.554-1.518,1.234v10.077c0,0.681,0.681,1.235,1.518,1.235h1.138l2.386,4.137l2.386-4.137h8.806
	c0.836,0,1.516-0.555,1.516-1.235V10.319c0-0.681-0.683-1.234-1.516-1.234H10.82z"/>
</svg>
