<?xml version="1.0" encoding="utf-8"?>
<!-- Generator: Adobe Illustrator 16.0.0, SVG Export Plug-In . SVG Version: 6.00 Build 0)  -->
<!DOCTYPE svg PUBLIC "-//W3C//DTD SVG 1.1//EN" "http://www.w3.org/Graphics/SVG/1.1/DTD/svg11.dtd">
<svg version="1.1" id="Layer_1" xmlns="http://www.w3.org/2000/svg" xmlns:xlink="http://www.w3.org/1999/xlink" x="0px" y="0px"
	 width="36.372px" height="36.387px" viewBox="0 0 36.372 36.387" enable-background="new 0 0 36.372 36.387" xml:space="preserve">
<path display="none" fill="none" d="M-118.351,47.852"/>
<path display="none" fill="none" d="M201.649,47.852"/>
<path display="none" fill="none" d="M-118.351,47.852"/>
<path display="none" fill="none" d="M201.649,47.852"/>
<path display="none" fill="none" d="M-118.351,47.852"/>
<path display="none" fill="none" d="M201.649,47.852"/>
<path fill="#FFFFFF" d="M18.186,0C8.142,0,0,8.146,0,18.193"/>
<path fill="#FFFFFF" d="M0,18.193c0,10.048,8.142,18.193,18.186,18.193c10.043,0,18.186-8.146,18.186-18.193S28.229,0,18.186,0"/>
<polyline fill="none" points="0,36.387 36.372,36.387 36.372,0 "/>
<path display="none" fill="none" d="M-118.351,47.852"/>
<path display="none" fill="none" d="M201.649,47.852"/>
<path display="none" fill="none" d="M-118.351,47.852"/>
<path display="none" fill="none" d="M201.649,47.852"/>
<path display="none" fill="none" d="M-118.351,47.852"/>
<path display="none" fill="none" d="M201.649,47.852"/>
<path display="none" fill="none" d="M-118.351,47.852"/>
<path display="none" fill="none" d="M201.649,47.852"/>
<path fill="#2A3487" d="M14.027,29.836l-3.272-5.67h-0.256c-1.683,0-3.052-1.241-3.052-2.77V11.319c0-1.526,1.37-2.768,3.052-2.768
	h14.723c1.684,0,3.052,1.241,3.052,2.768v10.077c0,1.528-1.368,2.77-3.052,2.77h-7.923L14.027,29.836z M10.499,10.085
	c-0.837,0-1.518,0.554-1.518,1.234v10.077c0,0.682,0.681,1.235,1.518,1.235h1.139l2.388,4.137l2.386-4.137h8.81
	c0.837,0,1.516-0.555,1.516-1.235V11.319c0-0.681-0.682-1.234-1.516-1.234H10.499z"/>
<line display="none" fill="none" x1="129.649" y1="48.852" x2="-190.351" y2="48.852"/>
<line display="none" fill="none" x1="201.649" y1="47.852" x2="-118.351" y2="47.852"/>
<line display="none" fill="none" x1="-118.351" y1="47.852" x2="201.649" y2="47.852"/>
</svg>
