<?xml version="1.0" encoding="utf-8"?>
<!-- Generator: Adobe Illustrator 16.0.0, SVG Export Plug-In . SVG Version: 6.00 Build 0)  -->
<!DOCTYPE svg PUBLIC "-//W3C//DTD SVG 1.1//EN" "http://www.w3.org/Graphics/SVG/1.1/DTD/svg11.dtd">
<svg version="1.1" id="Layer_1" xmlns="http://www.w3.org/2000/svg" xmlns:xlink="http://www.w3.org/1999/xlink" x="0px" y="0px"
	 width="71.679px" height="71.531px" viewBox="0 0 71.679 71.531" enable-background="new 0 0 71.679 71.531" xml:space="preserve">
<path fill="#FFFFFF" d="M67.927,35.766c0-17.685-14.365-32.021-32.086-32.021c-17.722,0-32.088,14.337-32.088,32.021
	S18.118,67.787,35.84,67.787C53.562,67.787,67.927,53.45,67.927,35.766"/>
<path fill="#6BCCE0" d="M35.84,71.531C16.078,71.531,0,55.486,0,35.766C0,16.044,16.078,0,35.84,0
	c19.762,0,35.838,16.044,35.838,35.766C71.679,55.486,55.603,71.531,35.84,71.531 M35.84,0.888
	c-19.272,0-34.951,15.646-34.951,34.878c0,19.231,15.679,34.878,34.951,34.878c19.272,0,34.95-15.646,34.95-34.878
	C70.79,16.533,55.112,0.888,35.84,0.888"/>
<path fill="#2A3487" d="M36.086,31.823c0.079,0.291,0.343,0.482,0.632,0.482c0.056,0,0.114-0.007,0.171-0.022l2.824-0.764
	c0.35-0.094,0.556-0.452,0.461-0.801c-0.094-0.349-0.453-0.558-0.803-0.459l-2.825,0.763C36.198,31.116,35.992,31.475,36.086,31.823
	"/>
<path fill="#2A3487" d="M25.815,35.351l1.963,0.653c0.069,0.022,0.139,0.033,0.207,0.033c0.274,0,0.529-0.173,0.621-0.446
	c0.114-0.343-0.071-0.713-0.414-0.826l-1.964-0.653c-0.343-0.115-0.713,0.07-0.828,0.413C25.287,34.867,25.472,35.236,25.815,35.351
	"/>
<path fill="#2A3487" d="M32.937,34.198c0.014,0,0.027,0.001,0.041,0.001c0.344,0,0.632-0.267,0.652-0.613l0.055-0.923
	c0.022-0.36-0.253-0.669-0.614-0.691c-0.367-0.019-0.671,0.254-0.692,0.613l-0.055,0.922C32.301,33.868,32.576,34.178,32.937,34.198
	"/>
<path fill="#2A3487" d="M44.54,37.006c0.128,0.127,0.295,0.191,0.463,0.191s0.336-0.064,0.463-0.191
	c0.256-0.256,0.256-0.669,0-0.924l-0.654-0.653c-0.256-0.255-0.67-0.255-0.926,0c-0.256,0.256-0.256,0.668,0,0.924L44.54,37.006z"/>
<path fill="#2A3487" d="M38.593,35.428c-0.256-0.255-0.669-0.255-0.926,0c-0.255,0.256-0.255,0.669,0,0.924l0.655,0.653
	c0.128,0.127,0.296,0.191,0.463,0.191s0.335-0.064,0.462-0.191c0.257-0.255,0.257-0.668,0-0.924L38.593,35.428z"/>
<path fill="#2A3487" d="M36.392,25.391c0.075,0.297,0.341,0.495,0.634,0.495c0.053,0,0.105-0.007,0.16-0.02
	c0.351-0.088,0.563-0.442,0.477-0.792l-0.654-2.612c-0.088-0.351-0.445-0.562-0.795-0.476c-0.351,0.088-0.563,0.442-0.477,0.792
	L36.392,25.391z"/>
<path fill="#2A3487" d="M33.413,29.316c0.128,0.127,0.295,0.191,0.463,0.191s0.335-0.064,0.463-0.191
	c0.256-0.256,0.256-0.668,0-0.924l-0.654-0.653c-0.256-0.255-0.67-0.255-0.926,0c-0.256,0.256-0.256,0.668,0,0.924L33.413,29.316z"
	/>
<path fill="#2A3487" d="M52.663,39.379c-0.524-0.518-1.135-0.899-1.783-1.153c0.008-0.129,0.015-0.254,0.015-0.376
	c0-2.958-1.952-5.485-4.741-6.273c0.105-0.402,0.16-0.816,0.16-1.237c0-2.635-2.096-4.791-4.711-4.896
	c0.053-0.306,0.08-0.613,0.08-0.923c0-3.232-2.301-5.863-5.129-5.863h-0.746c-2.828,0-5.129,2.63-5.129,5.863
	c0,0.31,0.027,0.617,0.08,0.923c-2.626,0.091-4.735,2.252-4.735,4.896c0,0.371,0.042,0.737,0.123,1.094
	c-3.064,0.559-5.359,3.233-5.359,6.417c0,0.123,0.007,0.249,0.015,0.379c-0.649,0.254-1.259,0.634-1.784,1.149l-0.352,0.346
	l6.28,11.522c0.396,0.976,1.363,1.627,2.419,1.627h16.949c1.058,0,2.024-0.651,2.42-1.627l6.278-11.521L52.663,39.379z
	 M22.095,37.895v-0.044c0-2.771,2.174-5.06,4.95-5.21c0.213-0.013,0.407-0.126,0.519-0.307c0.113-0.181,0.131-0.403,0.048-0.601
	c-0.187-0.442-0.282-0.912-0.282-1.395c0-1.98,1.615-3.593,3.6-3.593c0.074,0,0.248,0.009,0.586,0.066
	c0.229,0.037,0.463-0.047,0.612-0.226c0.15-0.179,0.192-0.423,0.113-0.641c-0.17-0.467-0.256-0.945-0.256-1.426
	c0-2.513,1.714-4.557,3.821-4.557h0.746c2.106,0,3.82,2.044,3.82,4.557c0,0.48-0.086,0.961-0.256,1.427
	c-0.08,0.22-0.036,0.466,0.115,0.644c0.15,0.179,0.386,0.264,0.617,0.223c0.304-0.056,0.47-0.067,0.554-0.067
	c1.986,0,3.601,1.612,3.601,3.593c0,0.501-0.104,0.989-0.31,1.45c-0.081,0.186-0.072,0.398,0.023,0.576
	c0.097,0.178,0.271,0.301,0.472,0.334c2.548,0.41,4.396,2.577,4.396,5.151v0.043c-0.058-0.008-0.115-0.008-0.175-0.013
	c-0.09-0.008-0.179-0.016-0.27-0.02c-0.071-0.003-0.144-0.003-0.214-0.002c-0.1,0-0.199,0.002-0.299,0.008
	c-0.063,0.004-0.127,0.009-0.189,0.015c-0.108,0.01-0.217,0.023-0.324,0.04c-0.055,0.009-0.108,0.018-0.161,0.026
	c-0.118,0.022-0.235,0.049-0.352,0.079c-0.044,0.011-0.088,0.021-0.131,0.034c-0.126,0.035-0.249,0.077-0.372,0.121
	c-0.034,0.013-0.068,0.023-0.104,0.037c-0.13,0.051-0.257,0.107-0.383,0.168c-0.027,0.013-0.055,0.024-0.082,0.038
	c-0.135,0.067-0.266,0.142-0.395,0.221c-0.017,0.011-0.034,0.02-0.051,0.03c-0.146,0.092-0.287,0.19-0.425,0.298
	c-0.125-0.098-0.261-0.172-0.393-0.258c-1.87-1.212-4.343-1.139-6.12,0.257c-1.903-1.493-4.613-1.491-6.515,0.001
	c-1.92-1.494-4.657-1.494-6.577,0.002c-0.226-0.177-0.465-0.328-0.711-0.462c-0.017-0.01-0.033-0.021-0.051-0.029
	c-0.24-0.128-0.488-0.233-0.741-0.322c-0.03-0.011-0.06-0.022-0.09-0.032c-0.246-0.081-0.497-0.144-0.751-0.188
	c-0.044-0.008-0.088-0.016-0.132-0.022c-0.248-0.037-0.498-0.059-0.748-0.062c-0.023,0-0.045-0.006-0.068-0.006
	c-0.04,0-0.08,0.007-0.121,0.008c-0.138,0.003-0.276,0.012-0.414,0.025C22.184,37.891,22.14,37.889,22.095,37.895 M45.565,50.657
	l-0.036,0.077c-0.192,0.498-0.681,0.833-1.215,0.833H27.365c-0.535,0-1.022-0.336-1.215-0.833L20.302,39.99
	c0.578-0.444,1.254-0.708,1.948-0.796c0.05-0.007,0.099-0.007,0.149-0.011c0.165-0.015,0.331-0.02,0.496-0.015
	c0.068,0.002,0.136,0.007,0.203,0.012c0.161,0.013,0.321,0.036,0.479,0.068c0.054,0.012,0.108,0.018,0.161,0.03
	c0.2,0.049,0.396,0.114,0.588,0.194c0.058,0.023,0.113,0.054,0.17,0.081c0.142,0.067,0.281,0.143,0.417,0.227
	c0.058,0.037,0.116,0.073,0.172,0.112c0.175,0.123,0.345,0.256,0.502,0.409c0.002,0.003,0.006,0.005,0.008,0.007
	c0,0,0,0,0.001,0.001l0.458,0.45l0.459-0.451c0.093-0.091,0.2-0.159,0.3-0.241c1.571-1.269,3.893-1.201,5.36,0.241l0.462,0.454
	l0.459-0.456c0.748-0.743,1.723-1.118,2.705-1.141c0.03,0,0.06-0.008,0.09-0.008c0.034,0,0.068,0.009,0.103,0.01
	c0.724,0.019,1.445,0.226,2.072,0.636c0.22,0.145,0.428,0.312,0.619,0.503l0.463,0.458l0.461-0.458h0.001
	c0.192-0.191,0.4-0.358,0.618-0.503c1.533-1.005,3.621-0.836,4.971,0.503l0.46,0.457l0.462-0.456
	c0.159-0.156,0.332-0.291,0.508-0.416c0.055-0.038,0.112-0.074,0.17-0.11c0.134-0.085,0.273-0.16,0.415-0.228
	c0.056-0.026,0.11-0.057,0.168-0.081c0.19-0.078,0.384-0.144,0.582-0.192c0.056-0.014,0.112-0.021,0.169-0.032
	c0.154-0.031,0.31-0.054,0.466-0.067c0.069-0.006,0.138-0.01,0.208-0.012c0.162-0.006,0.325,0,0.486,0.015
	c0.051,0.005,0.102,0.005,0.152,0.011c0.691,0.087,1.362,0.351,1.938,0.795L45.565,50.657z"/>
<path fill="#2A3487" d="M27.308,42.251c-0.096-0.348-0.457-0.557-0.804-0.458c-0.349,0.095-0.554,0.453-0.459,0.802l1.964,7.186
	c0.08,0.29,0.343,0.48,0.631,0.48c0.057,0,0.115-0.007,0.173-0.022c0.349-0.096,0.554-0.454,0.459-0.802L27.308,42.251z"/>
<path fill="#2A3487" d="M45.175,41.792c-0.35-0.095-0.709,0.11-0.803,0.459l-1.965,7.184c-0.094,0.348,0.111,0.707,0.461,0.803
	c0.057,0.016,0.115,0.022,0.172,0.022c0.288,0,0.552-0.19,0.631-0.481l1.964-7.185C45.729,42.247,45.524,41.888,45.175,41.792"/>
<path fill="#2A3487" d="M39.172,41.771c-0.361-0.03-0.679,0.233-0.711,0.592l-0.654,7.184c-0.032,0.36,0.232,0.678,0.593,0.71
	c0.021,0.002,0.04,0.003,0.06,0.003c0.335,0,0.62-0.255,0.651-0.594l0.654-7.184C39.798,42.123,39.532,41.805,39.172,41.771"/>
<path fill="#2A3487" d="M32.508,41.771c-0.36,0.033-0.626,0.351-0.593,0.711l0.655,7.184c0.03,0.339,0.316,0.594,0.651,0.594
	c0.02,0,0.04-0.001,0.059-0.003c0.36-0.032,0.626-0.35,0.593-0.71l-0.655-7.184C33.187,42.005,32.872,41.743,32.508,41.771"/>
</svg>
