<?xml version="1.0" encoding="utf-8"?>
<!-- Generator: Adobe Illustrator 16.0.0, SVG Export Plug-In . SVG Version: 6.00 Build 0)  -->
<!DOCTYPE svg PUBLIC "-//W3C//DTD SVG 1.1//EN" "http://www.w3.org/Graphics/SVG/1.1/DTD/svg11.dtd">
<svg version="1.1" id="Layer_1" xmlns="http://www.w3.org/2000/svg" xmlns:xlink="http://www.w3.org/1999/xlink" x="0px" y="0px"
	 width="22.959px" height="22.955px" viewBox="0 0 22.959 22.955" enable-background="new 0 0 22.959 22.955" xml:space="preserve">
<path fill="#2A3487" d="M22.959,11.478c0,6.339-5.14,11.478-11.48,11.478C5.14,22.955,0,17.816,0,11.478S5.14,0,11.479,0
	C17.82,0,22.959,5.139,22.959,11.478"/>
<path fill="#FFFFFF" d="M6.235,15.81L6.235,15.81c-0.778-0.777-0.778-2.038,0-2.816l6.571-6.57c0.778-0.777,2.039-0.777,2.816,0
	c0.778,0.778,0.778,2.038,0,2.816l-6.571,6.57C8.273,16.587,7.013,16.587,6.235,15.81"/>
<path fill="#FFFFFF" d="M15.623,15.81L15.623,15.81c0.778-0.777,0.778-2.038,0-2.816l-6.571-6.57c-0.778-0.777-2.039-0.777-2.816,0
	c-0.778,0.778-0.778,2.038,0,2.816l6.571,6.57C13.584,16.587,14.845,16.587,15.623,15.81"/>
</svg>
