<?xml version="1.0" encoding="utf-8"?>
<!-- Generator: Adobe Illustrator 16.0.0, SVG Export Plug-In . SVG Version: 6.00 Build 0)  -->
<!DOCTYPE svg PUBLIC "-//W3C//DTD SVG 1.1//EN" "http://www.w3.org/Graphics/SVG/1.1/DTD/svg11.dtd">
<svg version="1.1" id="Layer_1" xmlns="http://www.w3.org/2000/svg" xmlns:xlink="http://www.w3.org/1999/xlink" x="0px" y="0px"
	 width="71.68px" height="71.53px" viewBox="0 0 71.68 71.53" enable-background="new 0 0 71.68 71.53" xml:space="preserve">
<path fill="#FFFFFF" d="M67.929,35.766c0-17.685-14.366-32.021-32.087-32.021c-17.722,0-32.088,14.337-32.088,32.021
	S18.12,67.786,35.842,67.786C53.563,67.786,67.929,53.45,67.929,35.766"/>
<path fill="#6BCCE0" d="M35.841,71.53C16.078,71.53,0,55.487,0,35.766C0,16.044,16.078,0,35.841,0
	C55.603,0,71.68,16.044,71.68,35.766C71.68,55.487,55.603,71.53,35.841,71.53 M35.841,0.887C16.568,0.887,0.89,16.534,0.89,35.766
	c0,19.231,15.679,34.878,34.951,34.878c19.271,0,34.95-15.646,34.95-34.878C70.791,16.534,55.112,0.887,35.841,0.887"/>
<path fill="#2A3487" d="M32.375,43.078c0.328,0.327,0.328,0.859,0,1.187l-0.828,0.828c-0.165,0.164-0.38,0.246-0.596,0.246
	c-0.215,0-0.431-0.082-0.595-0.246c-0.328-0.328-0.328-0.859,0-1.188l0.829-0.826C31.514,42.751,32.047,42.751,32.375,43.078
	 M31.146,40.12c0-0.464-0.376-0.84-0.841-0.84h-1.172c-0.464,0-0.842,0.376-0.842,0.84c0,0.463,0.378,0.84,0.842,0.84h1.172
	C30.771,40.96,31.146,40.583,31.146,40.12 M31.547,35.147c-0.329-0.327-0.861-0.328-1.19,0c-0.328,0.328-0.328,0.859,0,1.188
	l0.829,0.826c0.164,0.164,0.38,0.246,0.596,0.246c0.215,0,0.43-0.082,0.594-0.246c0.328-0.328,0.328-0.858,0-1.187L31.547,35.147z
	 M35.34,35.937c0.464,0,0.841-0.376,0.841-0.84v-1.17c0-0.463-0.377-0.839-0.841-0.839c-0.465,0-0.842,0.376-0.842,0.839v1.17
	C34.498,35.561,34.875,35.937,35.34,35.937 M38.898,37.407c0.216,0,0.431-0.082,0.595-0.246l0.829-0.826
	c0.328-0.328,0.328-0.859,0.001-1.188c-0.329-0.327-0.861-0.328-1.19,0l-0.829,0.827c-0.328,0.328-0.328,0.858,0,1.187
	C38.469,37.325,38.684,37.407,38.898,37.407 M39.493,43.079c-0.328-0.328-0.86-0.328-1.189-0.001c-0.328,0.327-0.328,0.859,0,1.187
	l0.829,0.828c0.164,0.164,0.38,0.246,0.595,0.246s0.432-0.082,0.595-0.246c0.328-0.328,0.328-0.859,0.001-1.188L39.493,43.079z
	 M41.546,39.28h-1.173c-0.464,0-0.841,0.376-0.841,0.84c0,0.463,0.377,0.84,0.841,0.84h1.173c0.464,0,0.841-0.377,0.841-0.84
	C42.387,39.656,42.01,39.28,41.546,39.28 M35.34,44.304c-0.465,0-0.842,0.377-0.842,0.84v1.17c0,0.463,0.377,0.839,0.842,0.839
	c0.464,0,0.841-0.376,0.841-0.839v-1.17C36.181,44.681,35.804,44.304,35.34,44.304 M50.308,18.653v6.559
	c0,0.464-0.377,0.84-0.841,0.84h-0.979l1.344,20.211c0.002,0.026,0.002,0.053,0.002,0.078v6.537c0,0.463-0.377,0.839-0.842,0.839
	H21.687c-0.465,0-0.841-0.376-0.841-0.839v-6.559c0-0.02,0-0.039,0.002-0.057l1.344-20.211h-0.979c-0.464,0-0.841-0.375-0.841-0.84
	v-6.559c0-0.463,0.377-0.839,0.841-0.839h28.254C49.931,17.814,50.308,18.19,50.308,18.653 M48.151,46.342l-1.35-20.29h-7.895
	c-0.098,1.879-1.661,3.377-3.567,3.377c-1.907,0-3.47-1.498-3.568-3.377h-7.895l-1.35,20.295v5.691h25.624V46.342z M35.34,27.75
	c1.042,0,1.891-0.847,1.891-1.887c0-0.152-0.02-0.305-0.055-0.451c-0.001-0.003-0.002-0.007-0.003-0.011
	c-0.212-0.839-0.964-1.425-1.833-1.425c-0.87,0-1.623,0.585-1.834,1.425c-0.001,0.004-0.001,0.007-0.002,0.011
	c-0.036,0.146-0.055,0.299-0.055,0.451C33.449,26.903,34.297,27.75,35.34,27.75 M48.625,19.493h-26.57v4.88h10.038
	c0.572-1.248,1.826-2.074,3.247-2.074c1.42,0,2.674,0.826,3.247,2.074h10.038V19.493L48.625,19.493z"/>
<path fill="#2A3487" d="M35.302,40.403c0.137,0,0.248-0.111,0.248-0.249v-3.318c0-0.137-0.111-0.248-0.248-0.248
	c-0.138,0-0.249,0.111-0.249,0.248v3.318C35.053,40.292,35.164,40.403,35.302,40.403"/>
<path fill="#2A3487" d="M35.053,40.154c0,0.138,0.111,0.249,0.249,0.249h1.97c0.138,0,0.249-0.111,0.249-0.249
	c0-0.137-0.111-0.247-0.249-0.247h-1.97C35.164,39.907,35.053,40.018,35.053,40.154"/>
</svg>
