<?xml version="1.0" encoding="utf-8"?>
<!-- Generator: Adobe Illustrator 16.0.0, SVG Export Plug-In . SVG Version: 6.00 Build 0)  -->
<!DOCTYPE svg PUBLIC "-//W3C//DTD SVG 1.1//EN" "http://www.w3.org/Graphics/SVG/1.1/DTD/svg11.dtd">
<svg version="1.1" id="Layer_1" xmlns="http://www.w3.org/2000/svg" xmlns:xlink="http://www.w3.org/1999/xlink" x="0px" y="0px"
	 width="71.679px" height="71.53px" viewBox="0 0 71.679 71.53" enable-background="new 0 0 71.679 71.53" xml:space="preserve">
<path fill="#6BCCE0" d="M35.84,71.53C16.078,71.53,0,55.487,0,35.766C0,16.044,16.078,0,35.84,0
	c19.762,0,35.838,16.044,35.838,35.766C71.679,55.487,55.603,71.53,35.84,71.53 M35.84,0.887c-19.272,0-34.951,15.646-34.951,34.878
	c0,19.231,15.679,34.878,34.951,34.878c19.272,0,34.95-15.646,34.95-34.878C70.79,16.534,55.112,0.887,35.84,0.887"/>
<path fill="#FFFFFF" d="M67.927,35.766c0-17.685-14.365-32.021-32.086-32.021c-17.722,0-32.088,14.337-32.088,32.021
	S18.118,67.786,35.84,67.786C53.562,67.786,67.927,53.45,67.927,35.766"/>
<path fill="#2A3487" d="M41.936,41.12c0.2-0.245,0.243-0.586,0.106-0.872c-0.135-0.288-0.424-0.472-0.744-0.472H12.347
	c-0.32,0-0.608,0.184-0.745,0.472c-0.137,0.286-0.095,0.627,0.107,0.872l3.697,4.5l0.771,2.594c0.105,0.349,0.427,0.588,0.79,0.588
	h19.712c0.365,0,0.685-0.239,0.79-0.588l0.771-2.594L41.936,41.12z M39.556,41.423l-2.451,2.982H16.54l-2.452-2.982H39.556z
	 M36.062,47.155h-18.48l-0.33-1.105h19.139L36.062,47.155z"/>
<path fill="#2A3487" d="M47.648,33.292c2.185,1.647,3.818,3.984,4.601,6.58c0.107,0.357,0.434,0.588,0.788,0.588
	c0.079,0,0.159-0.012,0.237-0.036c0.437-0.13,0.684-0.589,0.553-1.024c-0.883-2.929-2.725-5.564-5.186-7.419
	c-2.543-1.918-5.574-2.933-8.764-2.933c-0.455,0-0.822,0.369-0.822,0.821c0,0.455,0.367,0.823,0.822,0.823
	C42.704,30.691,45.393,31.592,47.648,33.292"/>
<path fill="#2A3487" d="M59.332,42.966h-2.154c-0.298-8.45-6.706-15.376-14.94-16.501c0.164-0.341,0.256-0.722,0.256-1.125
	c0-1.44-1.172-2.61-2.615-2.61c-1.441,0-2.615,1.17-2.615,2.61c0,0.402,0.092,0.782,0.256,1.125
	c-2.705,0.367-5.277,1.364-7.538,2.939c-2.845,1.982-5.007,4.73-6.253,7.948c-0.165,0.424,0.047,0.899,0.472,1.063
	c0.425,0.163,0.902-0.047,1.067-0.471c1.127-2.911,3.084-5.397,5.658-7.19c2.634-1.836,5.731-2.806,8.954-2.806
	c8.432,0,15.326,6.681,15.65,15.017H42.144c-0.457,0-0.826,0.368-0.826,0.823c0,0.454,0.369,0.822,0.826,0.822h17.188
	c0.454,0,0.825-0.368,0.825-0.822C60.157,43.334,59.786,42.966,59.332,42.966 M38.911,25.34c0-0.532,0.434-0.965,0.967-0.965
	s0.967,0.434,0.967,0.965s-0.434,0.964-0.967,0.964S38.911,25.872,38.911,25.34"/>
</svg>
