<?xml version="1.0" encoding="utf-8"?>
<!-- Generator: Adobe Illustrator 16.0.0, SVG Export Plug-In . SVG Version: 6.00 Build 0)  -->
<!DOCTYPE svg PUBLIC "-//W3C//DTD SVG 1.1//EN" "http://www.w3.org/Graphics/SVG/1.1/DTD/svg11.dtd">
<svg version="1.1" id="Layer_1" xmlns="http://www.w3.org/2000/svg" xmlns:xlink="http://www.w3.org/1999/xlink" x="0px" y="0px"
	 width="36.355px" height="36.387px" viewBox="0 0 36.355 36.387" enable-background="new 0 0 36.355 36.387" xml:space="preserve">
<g opacity="0.5">
	<g>
		<defs>
			<rect id="SVGID_1_" width="36.355" height="36.387"/>
		</defs>
		<clipPath id="SVGID_2_">
			<use xlink:href="#SVGID_1_"  overflow="visible"/>
		</clipPath>
		<path clip-path="url(#SVGID_2_)" fill="#FFFFFF" d="M0,18.193c0,10.048,8.139,18.193,18.178,18.193
			c10.04,0,18.177-8.146,18.177-18.193S28.217,0,18.178,0C8.139,0,0,8.146,0,18.193"/>
	</g>
</g>
<path fill="#2A3487" d="M16.455,19.271c0,0.623-0.504,1.128-1.126,1.128s-1.126-0.505-1.126-1.128c0-0.622,0.504-1.126,1.126-1.126
	S16.455,18.649,16.455,19.271 M21.026,18.146c-0.621,0-1.125,0.504-1.125,1.126c0,0.623,0.504,1.128,1.125,1.128
	c0.623,0,1.127-0.505,1.127-1.128C22.153,18.649,21.649,18.146,21.026,18.146 M29.145,18.643v2.144c0,1.076-0.871,1.948-1.945,1.948
	h-1.412c-1.398,3.888-4.973,6.236-7.61,6.236s-6.21-2.349-7.61-6.236H9.155c-1.074,0-1.945-0.872-1.945-1.948v-2.144
	c0-0.739,0.413-1.383,1.02-1.712c0.02-3.042,0.906-5.418,2.637-7.06c1.716-1.629,4.176-2.455,7.311-2.455
	c3.136,0,5.596,0.826,7.312,2.454c1.73,1.643,2.616,4.019,2.637,7.061C28.733,17.26,29.145,17.903,29.145,18.643 M25.028,19.279
	c0-0.501-0.026-0.972-0.064-1.429c-0.863-0.79-2.432-1.39-4.409-1.613c0.259,0.292,0.483,0.678,0.62,1.183
	c-1.212-0.955-3.591-0.728-5.391-2.866c-0.103-0.119-0.192-0.233-0.27-0.338c-0.001-0.001-0.002-0.002-0.003-0.004h0.001
	c-0.321-0.433-0.43-0.69-0.436-0.404c-0.053,2.458-1.794,4.374-3.727,4.644c-0.012,0.271-0.022,0.543-0.022,0.828
	c0,1.039,0.17,1.986,0.458,2.839c1.086,1.311,2.878,1.682,4.465,1.779c0.294-0.47,0.956-0.797,1.725-0.797
	c1.044,0,1.89,0.602,1.89,1.343s-0.845,1.343-1.89,1.343c-0.802,0-1.486-0.356-1.76-0.858c-1.11-0.064-2.329-0.254-3.415-0.768
	c1.528,2.255,3.896,3.447,5.376,3.447C20.502,27.607,25.028,24.668,25.028,19.279 M26.954,16.696
	c-0.123-5.308-3.15-8.111-8.776-8.111c-5.625,0-8.652,2.804-8.776,8.111h0.748c0.274-1.789,0.853-3.26,1.73-4.392
	c1.4-1.803,3.519-2.717,6.297-2.717c2.779,0,4.897,0.914,6.298,2.717c0.877,1.132,1.457,2.603,1.73,4.392H26.954z"/>
</svg>
