<?xml version="1.0" encoding="utf-8"?>
<!-- Generator: Adobe Illustrator 16.0.0, SVG Export Plug-In . SVG Version: 6.00 Build 0)  -->
<!DOCTYPE svg PUBLIC "-//W3C//DTD SVG 1.1//EN" "http://www.w3.org/Graphics/SVG/1.1/DTD/svg11.dtd">
<svg version="1.1" id="Layer_1" xmlns="http://www.w3.org/2000/svg" xmlns:xlink="http://www.w3.org/1999/xlink" x="0px" y="0px"
	 width="31.063px" height="31.077px" viewBox="0 0 31.063 31.077" enable-background="new 0 0 31.063 31.077" xml:space="preserve">
<path fill="#2A3487" d="M31.063,15.538C31.063,6.957,24.109,0,15.532,0C6.954,0,0,6.957,0,15.538
	c0,8.582,6.954,15.539,15.532,15.539C24.109,31.077,31.063,24.12,31.063,15.538"/>
<path fill="#FFFFFF" d="M15.328,8.16c0.962-0.006,1.746,0.768,1.752,1.731c0.005,0.963-0.769,1.747-1.731,1.752
	c-0.962,0.006-1.746-0.769-1.751-1.732C13.591,8.949,14.365,8.166,15.328,8.16 M16.939,12.727l-0.045,0l-2.801,0.017l-0.103,0
	c-0.573,0.003-1.032,0.471-1.029,1.042c0.003,0.574,0.471,1.033,1.041,1.029l0.104,0l0.036,6.037l-1.138,0.007l0.012,2.075
	l5.118-0.031l-0.012-2.074l-1.133,0.007l-0.048-8.109H16.939z"/>
</svg>
