<?xml version="1.0" encoding="utf-8"?>
<!-- Generator: Adobe Illustrator 16.0.0, SVG Export Plug-In . SVG Version: 6.00 Build 0)  -->
<!DOCTYPE svg PUBLIC "-//W3C//DTD SVG 1.1//EN" "http://www.w3.org/Graphics/SVG/1.1/DTD/svg11.dtd">
<svg version="1.1" id="Layer_1" xmlns="http://www.w3.org/2000/svg" xmlns:xlink="http://www.w3.org/1999/xlink" x="0px" y="0px"
	 width="52.096px" height="51.869px" viewBox="0 0 52.096 51.869" enable-background="new 0 0 52.096 51.869" xml:space="preserve">
<g>
	<defs>
		<rect id="SVGID_1_" x="-74.133" y="-407.452" width="320" height="568"/>
	</defs>
	<clipPath id="SVGID_2_">
		<use xlink:href="#SVGID_1_"  display="none" overflow="visible"/>
	</clipPath>
	<path clip-path="url(#SVGID_2_)" fill="#FFFFFF" d="M52.096,25.935C52.096,11.611,40.434,0,26.048,0C11.663,0,0,11.611,0,25.935
		s11.663,25.935,26.048,25.935C40.434,51.869,52.096,40.258,52.096,25.935 M2.368,25.935c0-13.021,10.602-23.578,23.68-23.578
		c13.079,0,23.68,10.557,23.68,23.578s-10.602,23.577-23.68,23.577C12.97,49.512,2.368,38.956,2.368,25.935"/>
	<path clip-path="url(#SVGID_2_)" fill="#FFFFFF" d="M27.047,40.904v-14.97h4.961l0.784-4.961h-5.745v-2.487
		c0-1.294,0.426-2.53,2.292-2.53h3.729v-4.95h-5.295c-4.452,0-5.667,2.918-5.667,6.964v3.002h-3.054v4.963h3.054v14.97H27.047z"/>
</g>
</svg>
