<?xml version="1.0" encoding="utf-8"?>
<!-- Generator: Adobe Illustrator 16.0.0, SVG Export Plug-In . SVG Version: 6.00 Build 0)  -->
<!DOCTYPE svg PUBLIC "-//W3C//DTD SVG 1.1//EN" "http://www.w3.org/Graphics/SVG/1.1/DTD/svg11.dtd">
<svg version="1.1" id="Layer_1" xmlns="http://www.w3.org/2000/svg" xmlns:xlink="http://www.w3.org/1999/xlink" x="0px" y="0px"
	 width="31.064px" height="31.077px" viewBox="0 0 31.064 31.077" enable-background="new 0 0 31.064 31.077" xml:space="preserve">
<path fill="#2A3487" d="M31.064,15.538c0,8.581-6.954,15.539-15.532,15.539S0,24.119,0,15.538C0,6.956,6.954,0,15.532,0
	S31.064,6.956,31.064,15.538"/>
<path fill="#6BCCE0" d="M23.562,9.073c-0.996-1.02-2.328-1.58-3.752-1.58c-1.401,0-2.72,0.546-3.71,1.537l-0.513,0.512L15.075,9.03
	c-0.991-0.991-2.31-1.538-3.71-1.538c-1.401,0-2.719,0.547-3.711,1.538c-0.99,0.991-1.536,2.31-1.536,3.712
	c0,1.401,0.546,2.721,1.536,3.712l6.559,6.562c0.379,0.378,0.876,0.567,1.374,0.567s0.995-0.189,1.373-0.567l6.517-6.519
	C25.523,14.449,25.562,11.119,23.562,9.073 M22.79,15.81l-6.517,6.518c-0.378,0.379-0.994,0.379-1.373,0l-6.56-6.561
	c-0.807-0.808-1.252-1.882-1.252-3.024c0-1.144,0.445-2.217,1.252-3.025c0.809-0.808,1.882-1.253,3.024-1.253
	c1.142,0,2.216,0.445,3.022,1.253l0.513,0.513l-0.784,0.786c-0.19,0.19-0.189,0.497,0,0.687c0.095,0.096,0.219,0.143,0.343,0.143
	c0.125,0,0.25-0.047,0.345-0.143l1.982-1.985c0.808-0.808,1.881-1.253,3.023-1.253c1.16,0,2.245,0.458,3.058,1.288
	C24.496,11.42,24.462,14.137,22.79,15.81"/>
<path fill="#6BCCE0" d="M23.348,12.521c-0.054-0.865-0.419-1.678-1.03-2.289c-0.433-0.433-0.97-0.747-1.553-0.909
	c-0.259-0.072-0.526,0.079-0.599,0.338s0.079,0.526,0.338,0.598c0.423,0.118,0.812,0.347,1.127,0.661
	c0.442,0.444,0.709,1.034,0.748,1.661c0.016,0.258,0.229,0.457,0.483,0.457c0.011,0,0.021-0.001,0.031-0.001
	C23.161,13.021,23.364,12.789,23.348,12.521"/>
</svg>
