<?xml version="1.0" encoding="utf-8"?>
<!-- Generator: Adobe Illustrator 16.0.0, SVG Export Plug-In . SVG Version: 6.00 Build 0)  -->
<!DOCTYPE svg PUBLIC "-//W3C//DTD SVG 1.1//EN" "http://www.w3.org/Graphics/SVG/1.1/DTD/svg11.dtd">
<svg version="1.1" id="Layer_1" xmlns="http://www.w3.org/2000/svg" xmlns:xlink="http://www.w3.org/1999/xlink" x="0px" y="0px"
	 width="31.05px" height="31.077px" viewBox="0 0 31.05 31.077" enable-background="new 0 0 31.05 31.077" xml:space="preserve">
<path fill="#2A3487" d="M31.05,15.538c0,8.582-6.95,15.539-15.524,15.539S0,24.12,0,15.538C0,6.957,6.951,0,15.525,0
	S31.05,6.957,31.05,15.538"/>
<path fill="#FFFFFF" d="M23.506,9.074c-0.996-1.02-2.328-1.581-3.75-1.581c-1.401,0-2.719,0.546-3.709,1.538l-0.512,0.512
	l-0.512-0.512c-0.991-0.993-2.309-1.538-3.709-1.538S8.597,8.038,7.605,9.031c-0.989,0.99-1.535,2.309-1.535,3.712
	c0,1.401,0.546,2.72,1.535,3.712l6.556,6.561c0.379,0.379,0.876,0.568,1.373,0.568c0.498,0,0.995-0.189,1.374-0.568l6.512-6.518
	C25.467,14.449,25.505,11.119,23.506,9.074 M22.733,15.81l-6.512,6.518c-0.38,0.38-0.996,0.38-1.374,0l-6.556-6.561
	c-0.807-0.809-1.251-1.882-1.251-3.024c0-1.144,0.444-2.218,1.251-3.025c0.809-0.808,1.881-1.252,3.022-1.252
	s2.215,0.444,3.021,1.252l0.513,0.514l-0.785,0.785c-0.188,0.189-0.188,0.497,0,0.687c0.096,0.095,0.22,0.143,0.345,0.143
	c0.123,0,0.248-0.048,0.344-0.143l1.981-1.985c0.807-0.808,1.881-1.252,3.022-1.252c1.158,0,2.244,0.458,3.055,1.288
	C24.44,11.42,24.405,14.137,22.733,15.81"/>
<path fill="#FFFFFF" d="M23.292,12.521c-0.054-0.863-0.419-1.676-1.03-2.288c-0.433-0.433-0.969-0.747-1.552-0.91
	c-0.258-0.071-0.526,0.079-0.599,0.339c-0.071,0.258,0.079,0.526,0.339,0.598c0.421,0.118,0.811,0.346,1.125,0.661
	c0.443,0.444,0.709,1.033,0.748,1.661c0.016,0.258,0.229,0.456,0.483,0.456c0.01,0,0.02-0.001,0.031-0.001
	C23.105,13.02,23.309,12.79,23.292,12.521"/>
</svg>
