<?xml version="1.0" encoding="utf-8"?>
<!-- Generator: Adobe Illustrator 16.0.0, SVG Export Plug-In . SVG Version: 6.00 Build 0)  -->
<!DOCTYPE svg PUBLIC "-//W3C//DTD SVG 1.1//EN" "http://www.w3.org/Graphics/SVG/1.1/DTD/svg11.dtd">
<svg version="1.1" id="Layer_1" xmlns="http://www.w3.org/2000/svg" xmlns:xlink="http://www.w3.org/1999/xlink" x="0px" y="0px"
	 width="16.812px" height="12.627px" viewBox="0 0 16.812 12.627" enable-background="new 0 0 16.812 12.627" xml:space="preserve">
<path fill="#2A3487" d="M11.158,11.77h4.912c0.409,0,0.741-0.332,0.741-0.74s-0.332-0.74-0.741-0.74h-4.912
	c-0.267-0.51-0.8-0.857-1.416-0.857S8.592,9.78,8.325,10.29H0.742C0.331,10.29,0,10.622,0,11.03s0.331,0.74,0.742,0.74h7.583
	c0.267,0.509,0.802,0.857,1.417,0.857C10.358,12.627,10.892,12.279,11.158,11.77 M12.086,2.337h3.984
	c0.409,0,0.741-0.332,0.741-0.74s-0.332-0.739-0.741-0.739h-3.984C11.818,0.348,11.284,0,10.668,0S9.52,0.348,9.251,0.858H0.742
	C0.331,0.858,0,1.189,0,1.597s0.331,0.74,0.742,0.74h8.509c0.269,0.51,0.801,0.858,1.417,0.858S11.818,2.847,12.086,2.337
	 M8.563,7.129h7.507c0.409,0,0.741-0.331,0.741-0.74c0-0.408-0.332-0.74-0.741-0.74H8.563C8.297,5.139,7.763,4.791,7.146,4.791
	c-0.615,0-1.148,0.348-1.416,0.857H0.742C0.331,5.648,0,5.98,0,6.389c0,0.409,0.331,0.74,0.742,0.74H5.73
	c0.267,0.509,0.801,0.858,1.416,0.858C7.763,7.987,8.297,7.639,8.563,7.129"/>
</svg>
