<?xml version="1.0" encoding="utf-8"?>
<!-- Generator: Adobe Illustrator 16.0.0, SVG Export Plug-In . SVG Version: 6.00 Build 0)  -->
<!DOCTYPE svg PUBLIC "-//W3C//DTD SVG 1.1//EN" "http://www.w3.org/Graphics/SVG/1.1/DTD/svg11.dtd">
<svg version="1.1" id="Layer_1" xmlns="http://www.w3.org/2000/svg" xmlns:xlink="http://www.w3.org/1999/xlink" x="0px" y="0px"
	 width="28.21px" height="28.211px" viewBox="0 0 28.21 28.211" enable-background="new 0 0 28.21 28.211" xml:space="preserve">
<g>
	<defs>
		<polyline id="SVGID_1_" points="-45.581,-481.805 274.419,-481.805 274.419,86.195 -45.581,86.195 		"/>
	</defs>
	<clipPath id="SVGID_2_">
		<use xlink:href="#SVGID_1_"  display="none" overflow="visible"/>
	</clipPath>
	<path clip-path="url(#SVGID_2_)" fill="#40A459" d="M14.09,0.031c7.781,0,14.089,6.302,14.089,14.074
		c0,7.773-6.308,14.075-14.089,14.075C6.308,28.181,0,21.879,0,14.105C0,6.333,6.308,0.031,14.09,0.031"/>
	<path clip-path="url(#SVGID_2_)" fill="#388C4F" d="M14.09,0.031c-0.107,0-0.214,0.001-0.32,0.004
		c-0.027,0.001-0.055,0.001-0.082,0.002c-0.102,0.003-0.203,0.007-0.304,0.012c-0.026,0.001-0.052,0.003-0.078,0.004
		c-0.077,0.005-0.154,0.01-0.23,0.015c-0.039,0.003-0.077,0.006-0.115,0.009c-0.089,0.008-0.178,0.015-0.267,0.023
		c-0.045,0.005-0.091,0.01-0.136,0.015c-0.055,0.006-0.109,0.012-0.164,0.019c-0.047,0.006-0.095,0.012-0.142,0.018
		c6.913,0.899,12.252,6.805,12.252,13.955c0,7.151-5.339,13.056-12.252,13.955c0.047,0.007,0.095,0.013,0.142,0.019
		c0.055,0.006,0.109,0.012,0.164,0.019c0.045,0.005,0.091,0.01,0.137,0.014c0.089,0.009,0.177,0.017,0.266,0.023
		c0.038,0.004,0.077,0.006,0.115,0.009c0.077,0.006,0.153,0.011,0.23,0.015c0.026,0.002,0.052,0.003,0.078,0.005
		c0.102,0.005,0.203,0.009,0.304,0.011c0.027,0.002,0.055,0.002,0.082,0.003c0.106,0.002,0.213,0.003,0.32,0.003
		c7.781,0,14.089-6.301,14.089-14.074S21.871,0.031,14.09,0.031"/>
	<path clip-path="url(#SVGID_2_)" fill="#8A8891" d="M12.252,12.882l5.878-3.369c0,0,6.43,1.368,7.914-1.337l0.468-0.854
		l0.407,0.884c0.846,1.836,1.292,3.876,1.292,5.899c0,4.667-2.313,9.027-6.189,11.665l-0.4,0.272L12.252,12.882z"/>
	<path clip-path="url(#SVGID_2_)" fill="#7A7A80" d="M28.179,14.105c0-2.432-0.617-4.721-1.705-6.716l-0.431,0.786
		c-0.521,0.95-1.208,1.922-1.892,2.796c0.23,1.008,0.352,2.057,0.352,3.134c0,3.931-1.613,7.484-4.214,10.038l1.316,1.91
		C25.558,23.561,28.179,19.12,28.179,14.105"/>
	<path clip-path="url(#SVGID_2_)" fill="#4A99D3" d="M14.09,28.211c-4.824,0-9.267-2.429-11.886-6.497l-0.249-0.388l7.847-6.608
		l9.031,12.68l-0.575,0.187C16.911,28,15.509,28.211,14.09,28.211"/>
	<path clip-path="url(#SVGID_2_)" fill="#2C80C3" d="M18.89,27.375l-0.955-1.366c-1.686,1.065-3.62,1.814-5.689,2.083
		c0.602,0.078,1.221,0.089,1.844,0.089C15.769,28.181,17.396,27.913,18.89,27.375"/>
	<path clip-path="url(#SVGID_2_)" fill="#FFFFFF" d="M9.802,14.718l2.45-1.836l9.421,13.129l-0.458,0.269
		c-0.647,0.38-1.328,0.708-2.024,0.979l-0.358,0.14L9.802,14.718z"/>
	<path clip-path="url(#SVGID_2_)" fill="#E1E0E3" d="M18.833,27.397c1.004-0.357,1.956-0.824,2.84-1.387l-1.358-1.893
		c-0.739,0.73-1.558,1.378-2.443,1.931L18.833,27.397z"/>
	<path clip-path="url(#SVGID_2_)" fill="#FECF0A" d="M1.715,20.894C1.329,20.192,1,19.455,0.739,18.7l-0.116-0.444l16.53-11.493
		l2.45,1.836L1.955,21.326L1.715,20.894z"/>
	<path clip-path="url(#SVGID_2_)" fill="#CC2F27" d="M21.087,13.787c-0.867-0.904-5.19-5.551-5.19-8.249
		C15.897,2.484,18.384,0,21.441,0s5.544,2.484,5.544,5.538c0,2.695-4.324,7.345-5.19,8.249
		C21.602,13.988,21.28,13.988,21.087,13.787"/>
	<path clip-path="url(#SVGID_2_)" fill="#88211A" d="M21.441,7.405c-1.368,0-2.481-1.112-2.481-2.479s1.113-2.479,2.481-2.479
		s2.481,1.112,2.481,2.479S22.809,7.405,21.441,7.405"/>
	<path clip-path="url(#SVGID_2_)" fill="#FFFFFF" d="M7.964,10.281c1.604,0,2.91-1.304,2.91-2.906c0-0.254-0.206-0.459-0.459-0.459
		H8.576c-0.253,0-0.459,0.205-0.459,0.459c0,0.253,0.206,0.459,0.459,0.459h1.325C9.693,8.71,8.903,9.363,7.964,9.363
		c-1.098,0-1.991-0.893-1.991-1.988c0-1.097,0.894-1.989,1.991-1.989c0.485,0,0.953,0.177,1.316,0.497
		c0.19,0.167,0.48,0.149,0.648-0.041s0.149-0.48-0.041-0.647C9.356,4.726,8.673,4.468,7.964,4.468c-1.604,0-2.91,1.304-2.91,2.907
		C5.054,8.978,6.359,10.281,7.964,10.281"/>
</g>
</svg>
