<?xml version="1.0" encoding="utf-8"?>
<!-- Generator: Adobe Illustrator 16.0.0, SVG Export Plug-In . SVG Version: 6.00 Build 0)  -->
<!DOCTYPE svg PUBLIC "-//W3C//DTD SVG 1.1//EN" "http://www.w3.org/Graphics/SVG/1.1/DTD/svg11.dtd">
<svg version="1.1" id="Layer_1" xmlns="http://www.w3.org/2000/svg" xmlns:xlink="http://www.w3.org/1999/xlink" x="0px" y="0px"
	 width="26.713px" height="23.763px" viewBox="0 0 26.713 23.763" enable-background="new 0 0 26.713 23.763" xml:space="preserve">
<g>
	<defs>
		<rect id="SVGID_1_" x="-250.019" y="-23.178" width="320" height="568"/>
	</defs>
	<clipPath id="SVGID_2_">
		<use xlink:href="#SVGID_1_"  display="none" overflow="visible"/>
	</clipPath>
	<path clip-path="url(#SVGID_2_)" fill="#FFFFFF" d="M26.429,9.385L13.767,0.134c-0.244-0.179-0.576-0.179-0.82,0L0.284,9.385
		c-0.31,0.227-0.377,0.66-0.15,0.968c0.227,0.309,0.661,0.375,0.971,0.15l12.252-8.953l12.252,8.952
		c0.124,0.091,0.268,0.134,0.41,0.134c0.213,0,0.425-0.098,0.561-0.284C26.806,10.045,26.738,9.612,26.429,9.385"/>
	<path clip-path="url(#SVGID_2_)" fill="#FFFFFF" d="M23.074,10.66c-0.384,0-0.694,0.31-0.694,0.692v11.025h-5.553V16.36
		c0-1.91-1.557-3.464-3.471-3.464S9.886,14.45,9.886,16.36v6.018H4.333V11.353c0-0.382-0.311-0.693-0.693-0.693
		s-0.694,0.311-0.694,0.693V23.07c0,0.382,0.312,0.693,0.694,0.693h6.941c0.363,0,0.663-0.282,0.69-0.639
		c0.001-0.016,0.003-0.034,0.003-0.054v-6.71c0-1.146,0.934-2.079,2.082-2.079s2.083,0.932,2.083,2.079v6.71
		c0,0.02,0.001,0.037,0.003,0.054c0.026,0.357,0.326,0.639,0.69,0.639h6.941c0.383,0,0.693-0.311,0.693-0.693V11.353
		C23.768,10.97,23.457,10.66,23.074,10.66"/>
</g>
</svg>
