<?xml version="1.0" encoding="utf-8"?>
<!-- Generator: Adobe Illustrator 16.0.0, SVG Export Plug-In . SVG Version: 6.00 Build 0)  -->
<!DOCTYPE svg PUBLIC "-//W3C//DTD SVG 1.1//EN" "http://www.w3.org/Graphics/SVG/1.1/DTD/svg11.dtd">
<svg version="1.1" id="Layer_1" xmlns="http://www.w3.org/2000/svg" xmlns:xlink="http://www.w3.org/1999/xlink" x="0px" y="0px"
	 width="31.05px" height="31.077px" viewBox="0 0 31.05 31.077" enable-background="new 0 0 31.05 31.077" xml:space="preserve">
<path fill="#2A3487" d="M31.05,15.538C31.05,6.957,24.099,0,15.525,0C6.951,0,0,6.957,0,15.538c0,8.582,6.951,15.539,15.525,15.539
	C24.099,31.077,31.05,24.12,31.05,15.538"/>
<path fill="#FFFFFF" d="M15.091,7.24c0.963,0,1.74,0.779,1.74,1.742c0,0.964-0.777,1.742-1.74,1.742c-0.962,0-1.74-0.778-1.74-1.742
	C13.351,8.02,14.129,7.24,15.091,7.24 M16.675,11.817h-0.046H13.83h-0.103c-0.573,0-1.035,0.465-1.035,1.035
	c0,0.573,0.465,1.036,1.035,1.036h0.103v6.038h-1.137V22h5.116v-2.073h-1.132v-8.109H16.675z"/>
</svg>
