<?xml version="1.0" encoding="utf-8"?>
<!-- Generator: Adobe Illustrator 16.0.0, SVG Export Plug-In . SVG Version: 6.00 Build 0)  -->
<!DOCTYPE svg PUBLIC "-//W3C//DTD SVG 1.1//EN" "http://www.w3.org/Graphics/SVG/1.1/DTD/svg11.dtd">
<svg version="1.1" id="Layer_1" xmlns="http://www.w3.org/2000/svg" xmlns:xlink="http://www.w3.org/1999/xlink" x="0px" y="0px"
	 width="35.545px" height="35.575px" viewBox="0 0 35.545 35.575" enable-background="new 0 0 35.545 35.575" xml:space="preserve">
<path fill="#FFFFFF" d="M33.297,17.787c0-8.581-6.951-15.538-15.524-15.538c-8.575,0-15.525,6.957-15.525,15.538
	c0,8.582,6.951,15.539,15.525,15.539C26.346,33.326,33.297,26.369,33.297,17.787"/>
<ellipse fill="none" stroke="#FFFFFF" stroke-miterlimit="10" cx="17.773" cy="17.787" rx="17.273" ry="17.287"/>
<path fill="#2A3487" d="M17.613,10.408c0.962,0,1.74,0.779,1.74,1.742c0,0.964-0.778,1.742-1.74,1.742
	c-0.962,0-1.74-0.778-1.74-1.742C15.873,11.187,16.651,10.408,17.613,10.408 M19.196,14.984h-0.045h-2.799H16.25
	c-0.573,0-1.035,0.465-1.035,1.035c0,0.573,0.465,1.036,1.035,1.036h0.103v6.038h-1.137v2.073h5.116v-2.073h-1.131v-8.109H19.196z"
	/>
</svg>
