<?xml version="1.0" encoding="utf-8"?>
<!-- Generator: Adobe Illustrator 16.0.0, SVG Export Plug-In . SVG Version: 6.00 Build 0)  -->
<!DOCTYPE svg PUBLIC "-//W3C//DTD SVG 1.1//EN" "http://www.w3.org/Graphics/SVG/1.1/DTD/svg11.dtd">
<svg version="1.1" id="Layer_1" xmlns="http://www.w3.org/2000/svg" xmlns:xlink="http://www.w3.org/1999/xlink" x="0px" y="0px"
	 width="31.05px" height="31.077px" viewBox="0 0 31.05 31.077" enable-background="new 0 0 31.05 31.077" xml:space="preserve">
<path fill="#2A3487" d="M31.05,15.538C31.05,6.957,24.098,0,15.525,0C6.951,0,0,6.957,0,15.538c0,8.582,6.951,15.539,15.525,15.539
	C24.098,31.077,31.05,24.12,31.05,15.538"/>
<path fill="#FFFFFF" d="M15.525,11.167c-2.408,0-4.367,1.962-4.367,4.371c0,2.41,1.959,4.372,4.367,4.372
	c2.407,0,4.367-1.962,4.367-4.372C19.893,13.129,17.934,11.167,15.525,11.167 M15.525,18.739c-1.764,0-3.198-1.436-3.198-3.201
	s1.435-3.201,3.198-3.201s3.198,1.437,3.198,3.201C18.724,17.304,17.289,18.739,15.525,18.739"/>
<path fill="#FFFFFF" d="M21.066,11.037c0,0.57-0.464,1.034-1.033,1.034c-0.57,0-1.035-0.464-1.035-1.034s0.465-1.034,1.035-1.034
	C20.603,10.003,21.066,10.467,21.066,11.037"/>
<path fill="#FFFFFF" d="M19.466,7.579h-7.883c-2.211,0-4.011,1.801-4.011,4.016v7.888c0,2.215,1.8,4.016,4.011,4.016h7.883
	c2.213,0,4.012-1.801,4.012-4.016v-7.888C23.478,9.38,21.679,7.579,19.466,7.579 M22.158,19.743c0,1.343-1.09,2.435-2.433,2.435
	h-8.402c-1.341,0-2.432-1.092-2.432-2.435v-8.41c0-1.342,1.091-2.434,2.432-2.434h8.402c1.343,0,2.433,1.092,2.433,2.434V19.743z"/>
</svg>
