<?xml version="1.0" encoding="utf-8"?>
<!-- Generator: Adobe Illustrator 16.0.0, SVG Export Plug-In . SVG Version: 6.00 Build 0)  -->
<!DOCTYPE svg PUBLIC "-//W3C//DTD SVG 1.1//EN" "http://www.w3.org/Graphics/SVG/1.1/DTD/svg11.dtd">
<svg version="1.1" id="Layer_1" xmlns="http://www.w3.org/2000/svg" xmlns:xlink="http://www.w3.org/1999/xlink" x="0px" y="0px"
	 width="27.142px" height="27.086px" viewBox="0 0 27.142 27.086" enable-background="new 0 0 27.142 27.086" xml:space="preserve">
<g>
	<defs>
		<rect id="SVGID_1_" x="-247.937" y="-21.516" width="320" height="568"/>
	</defs>
	<clipPath id="SVGID_2_">
		<use xlink:href="#SVGID_1_"  display="none" overflow="visible"/>
	</clipPath>
	<path clip-path="url(#SVGID_2_)" fill="#2A3487" d="M27.142,13.543c0,7.479-6.076,13.543-13.571,13.543
		C6.076,27.086,0,21.022,0,13.543S6.076,0,13.57,0C21.065,0,27.142,6.063,27.142,13.543"/>
</g>
<g>
	<defs>
		<rect id="SVGID_3_" x="-247.937" y="-21.516" width="320" height="568"/>
	</defs>
	<clipPath id="SVGID_4_">
		<use xlink:href="#SVGID_3_"  display="none" overflow="visible"/>
	</clipPath>
	<path clip-path="url(#SVGID_4_)" fill="#FFFFFF" d="M21.563,7.088c-0.997-1.018-2.331-1.578-3.756-1.578
		c-1.402,0-2.722,0.545-3.714,1.536l-0.512,0.511l-0.513-0.512c-0.992-0.99-2.312-1.535-3.714-1.535S6.633,6.055,5.641,7.045
		c-0.992,0.99-1.538,2.306-1.538,3.706s0.546,2.716,1.538,3.706l6.564,6.551c0.379,0.378,0.877,0.567,1.375,0.567
		s0.996-0.189,1.375-0.567l6.522-6.508C23.525,12.456,23.564,9.131,21.563,7.088 M20.79,13.814l-6.522,6.508
		c-0.379,0.378-0.996,0.378-1.375,0l-6.564-6.551c-0.808-0.807-1.253-1.879-1.253-3.02s0.445-2.213,1.253-3.02
		c0.809-0.807,1.884-1.251,3.026-1.251s2.218,0.444,3.026,1.251l0.513,0.512l-0.785,0.784c-0.19,0.189-0.19,0.497,0,0.686
		c0.095,0.095,0.219,0.142,0.344,0.142c0.124,0,0.249-0.047,0.344-0.143l1.984-1.981c0.809-0.807,1.884-1.251,3.026-1.251
		c1.161,0,2.248,0.457,3.061,1.286C22.498,9.431,22.463,12.144,20.79,13.814"/>
	<path clip-path="url(#SVGID_4_)" fill="#FFFFFF" d="M21.349,10.531c-0.054-0.863-0.42-1.674-1.031-2.285
		c-0.434-0.433-0.972-0.747-1.555-0.909c-0.259-0.072-0.526,0.079-0.599,0.337c-0.072,0.258,0.079,0.525,0.338,0.597
		c0.423,0.118,0.813,0.346,1.128,0.66c0.443,0.443,0.709,1.032,0.748,1.659c0.016,0.257,0.23,0.455,0.484,0.455
		c0.011,0,0.021,0,0.031-0.001C21.161,11.029,21.365,10.799,21.349,10.531"/>
</g>
</svg>
