<?xml version="1.0" encoding="utf-8"?>
<!-- Generator: Adobe Illustrator 16.0.0, SVG Export Plug-In . SVG Version: 6.00 Build 0)  -->
<!DOCTYPE svg PUBLIC "-//W3C//DTD SVG 1.1//EN" "http://www.w3.org/Graphics/SVG/1.1/DTD/svg11.dtd">
<svg version="1.1" id="Layer_1" xmlns="http://www.w3.org/2000/svg" xmlns:xlink="http://www.w3.org/1999/xlink" x="0px" y="0px"
	 width="31.05px" height="31.077px" viewBox="0 0 31.05 31.077" enable-background="new 0 0 31.05 31.077" xml:space="preserve">
<path display="none" fill="#2A3487" d="M31.528,15.62c0,8.582-6.95,15.539-15.524,15.539S0.479,24.202,0.479,15.62
	c0-8.581,6.951-15.538,15.525-15.538S31.528,7.039,31.528,15.62"/>
<path display="none" fill="#FFFFFF" d="M23.984,9.156c-0.996-1.02-2.328-1.581-3.75-1.581c-1.401,0-2.719,0.546-3.709,1.538
	l-0.512,0.512l-0.512-0.512c-0.991-0.993-2.309-1.538-3.709-1.538S9.075,8.121,8.084,9.113c-0.989,0.99-1.535,2.309-1.535,3.712
	c0,1.401,0.546,2.72,1.535,3.712l6.556,6.561c0.379,0.379,0.876,0.568,1.373,0.568c0.498,0,0.995-0.189,1.374-0.568l6.512-6.518
	C25.945,14.531,25.983,11.201,23.984,9.156 M23.212,15.893L16.7,22.41c-0.38,0.38-0.996,0.38-1.374,0L8.771,15.85
	c-0.807-0.809-1.251-1.882-1.251-3.024c0-1.144,0.444-2.218,1.251-3.025c0.809-0.808,1.881-1.252,3.022-1.252
	s2.215,0.444,3.021,1.252l0.513,0.514l-0.785,0.785c-0.188,0.189-0.188,0.497,0,0.687c0.096,0.095,0.22,0.143,0.345,0.143
	c0.123,0,0.248-0.048,0.344-0.143L17.212,9.8c0.807-0.808,1.881-1.252,3.022-1.252c1.158,0,2.244,0.458,3.055,1.288
	C24.919,11.503,24.884,14.22,23.212,15.893"/>
<path display="none" fill="#FFFFFF" d="M23.771,12.604c-0.054-0.863-0.419-1.676-1.03-2.288c-0.433-0.433-0.969-0.747-1.552-0.91
	c-0.258-0.071-0.526,0.079-0.599,0.339c-0.071,0.258,0.079,0.526,0.339,0.598c0.421,0.118,0.811,0.346,1.125,0.661
	c0.443,0.444,0.709,1.033,0.748,1.661c0.016,0.258,0.229,0.456,0.483,0.456c0.01,0,0.02-0.001,0.031-0.001
	C23.584,13.103,23.787,12.872,23.771,12.604"/>
<path fill="#2B3786" d="M31.05,15.62c0-8.581-6.951-15.538-15.526-15.538C6.951,0.082,0,7.039,0,15.62
	c0,8.583,6.951,15.54,15.524,15.54C24.099,31.16,31.05,24.203,31.05,15.62"/>
<path fill="#FFFFFF" d="M23.427,17.209c0.355-0.454,0.525-0.938,0.504-1.438c-0.021-0.549-0.268-0.98-0.471-1.245
	c0.234-0.586,0.324-1.51-0.459-2.226c-0.576-0.525-1.553-0.761-2.904-0.695c-0.951,0.043-1.748,0.22-1.779,0.228h-0.004
	c-0.184,0.032-0.374,0.072-0.567,0.116c-0.018-0.232,0.023-0.808,0.45-2.104c0.508-1.542,0.479-2.723-0.094-3.512
	c-0.601-0.829-1.559-0.895-1.84-0.895c-0.271,0-0.521,0.112-0.699,0.319c-0.4,0.467-0.354,1.329-0.305,1.726
	c-0.477,1.283-1.815,4.425-2.947,5.297c-0.022,0.015-0.041,0.033-0.059,0.052c-0.333,0.351-0.557,0.73-0.709,1.063
	c-0.213-0.116-0.455-0.181-0.716-0.181H8.623c-0.832,0-1.505,0.677-1.505,1.507v5.882c0,0.832,0.677,1.506,1.505,1.506h2.206
	c0.323,0,0.624-0.102,0.868-0.273l0.85,0.1c0.131,0.02,2.446,0.314,4.823,0.268c0.43,0.031,0.835,0.049,1.212,0.049
	c0.646,0,1.211-0.049,1.684-0.152c1.105-0.234,1.859-0.705,2.244-1.396c0.293-0.527,0.293-1.055,0.246-1.387
	c0.721-0.65,0.85-1.371,0.82-1.879C23.562,17.643,23.497,17.393,23.427,17.209 M8.623,21.633c-0.293,0-0.528-0.24-0.528-0.529
	v-5.886c0-0.294,0.239-0.529,0.528-0.529h2.206c0.294,0,0.528,0.239,0.528,0.529v5.884c0,0.291-0.238,0.527-0.528,0.527H8.623
	V21.633z M22.501,16.785c-0.15,0.159-0.182,0.401-0.063,0.59c0,0.004,0.146,0.256,0.166,0.604c0.025,0.477-0.203,0.896-0.682,1.254
	c-0.17,0.129-0.236,0.355-0.166,0.559c0,0.002,0.154,0.48-0.098,0.932c-0.244,0.438-0.781,0.748-1.6,0.922
	c-0.654,0.141-1.545,0.166-2.638,0.078h-0.051c-2.326,0.051-4.677-0.252-4.702-0.256h-0.003L12.3,21.422
	c0.022-0.102,0.033-0.209,0.033-0.318v-5.886c0-0.156-0.026-0.309-0.069-0.449c0.066-0.243,0.246-0.782,0.673-1.242
	c1.625-1.288,3.211-5.637,3.281-5.825c0.028-0.076,0.036-0.159,0.021-0.242c-0.061-0.406-0.038-0.902,0.049-1.05
	c0.191,0.004,0.71,0.058,1.021,0.489c0.369,0.51,0.354,1.423-0.045,2.631c-0.607,1.843-0.658,2.813-0.176,3.241
	c0.238,0.213,0.557,0.224,0.787,0.141c0.222-0.051,0.433-0.095,0.63-0.127c0.016-0.004,0.033-0.007,0.047-0.01
	c1.109-0.244,3.102-0.392,3.791,0.238c0.588,0.536,0.172,1.245,0.123,1.321c-0.135,0.202-0.094,0.468,0.086,0.63
	c0.006,0.003,0.385,0.362,0.402,0.843C22.968,16.13,22.815,16.458,22.501,16.785"/>
</svg>
