<?xml version="1.0" encoding="utf-8"?>
<!-- Generator: Adobe Illustrator 16.0.0, SVG Export Plug-In . SVG Version: 6.00 Build 0)  -->
<!DOCTYPE svg PUBLIC "-//W3C//DTD SVG 1.1//EN" "http://www.w3.org/Graphics/SVG/1.1/DTD/svg11.dtd">
<svg version="1.1" id="Layer_1" xmlns="http://www.w3.org/2000/svg" xmlns:xlink="http://www.w3.org/1999/xlink" x="0px" y="0px"
	 width="35.561px" height="35.576px" viewBox="0 0 35.561 35.576" enable-background="new 0 0 35.561 35.576" xml:space="preserve">
<ellipse fill="none" stroke="#FFFFFF" stroke-miterlimit="10" cx="17.78" cy="17.787" rx="17.28" ry="17.287"/>
<path fill="#FFFFFF" d="M33.313,17.787c0-8.581-6.954-15.538-15.531-15.538c-8.579,0-15.533,6.957-15.533,15.538
	c0,8.582,6.954,15.539,15.533,15.539C26.358,33.326,33.313,26.369,33.313,17.787"/>
<path display="none" fill="#2A3487" d="M25.457,25.558h-0.603v-0.762h0.603c0.231,0,0.421-0.189,0.421-0.422
	c0-2.349-1.801-4.284-4.094-4.497V19.15c0-0.232-0.189-0.422-0.421-0.422c-0.233,0-0.421,0.189-0.421,0.422v0.728
	c-2.293,0.213-4.095,2.148-4.095,4.497c0,0.232,0.188,0.422,0.421,0.422h0.602v0.762h-0.602c-0.233,0-0.421,0.188-0.421,0.421
	s0.188,0.421,0.421,0.421h1.016H18.3h6.125h0.009h0.008h1.016c0.231,0,0.421-0.188,0.421-0.421S25.688,25.558,25.457,25.558
	 M24.013,25.558h-5.3v-0.762h5.3V25.558z M17.713,23.954c0.209-1.829,1.766-3.253,3.65-3.253s3.44,1.424,3.649,3.253H17.713z
	 M14.71,13.271c-1.237,0-2.205,0.707-2.205,1.611c0,0.903,0.968,1.611,2.205,1.611c1.236,0,2.205-0.708,2.205-1.611
	C16.915,13.978,15.946,13.271,14.71,13.271 M14.71,15.65c-0.803,0-1.363-0.406-1.363-0.769c0-0.364,0.56-0.769,1.363-0.769
	s1.363,0.405,1.363,0.769C16.073,15.245,15.513,15.65,14.71,15.65 M15.701,25.558h-5.176V12.064h8.371v7.009
	c0,0.232,0.188,0.422,0.42,0.422s0.421-0.189,0.421-0.422v-7.43c0-0.233-0.188-0.421-0.421-0.421h-0.197V9.596
	c0-0.121-0.053-0.235-0.142-0.315s-0.21-0.117-0.329-0.103l-8.593,1.024c-0.211,0.025-0.372,0.205-0.372,0.418v15.36
	c0,0.232,0.189,0.42,0.421,0.42h5.597c0.233,0,0.421-0.188,0.421-0.42C16.122,25.747,15.934,25.558,15.701,25.558 M10.524,10.993
	l7.752-0.923v1.152h-7.752V10.993z M14.001,24.351c-0.232,0-0.42-0.188-0.42-0.42s0.188-0.421,0.42-0.421h1.417
	c0.232,0,0.42,0.188,0.42,0.421s-0.188,0.42-0.42,0.42H14.001z"/>
<path fill="#2B3786" d="M25.906,21.417c0.354-0.453,0.524-0.938,0.503-1.438c-0.022-0.55-0.267-0.981-0.47-1.245
	c0.235-0.586,0.325-1.51-0.46-2.226c-0.575-0.525-1.554-0.761-2.906-0.695c-0.951,0.043-1.747,0.22-1.78,0.228h-0.004
	c-0.182,0.032-0.372,0.072-0.567,0.116c-0.015-0.232,0.025-0.808,0.451-2.104c0.507-1.542,0.478-2.723-0.094-3.512
	c-0.601-0.83-1.559-0.895-1.842-0.895c-0.271,0-0.521,0.112-0.699,0.319c-0.401,0.467-0.354,1.329-0.304,1.726
	c-0.477,1.283-1.817,4.425-2.949,5.297c-0.021,0.015-0.04,0.033-0.058,0.051c-0.333,0.351-0.558,0.731-0.709,1.064
	c-0.213-0.116-0.456-0.181-0.717-0.181h-2.206c-0.833,0-1.506,0.678-1.506,1.506v5.883c0,0.833,0.677,1.506,1.506,1.506h2.206
	c0.323,0,0.624-0.102,0.869-0.274l0.851,0.101c0.131,0.018,2.447,0.312,4.824,0.265c0.432,0.032,0.836,0.05,1.212,0.05
	c0.648,0,1.214-0.05,1.684-0.15c1.106-0.236,1.863-0.707,2.247-1.398c0.293-0.528,0.293-1.053,0.247-1.387
	c0.719-0.65,0.847-1.372,0.82-1.879C26.041,21.851,25.976,21.601,25.906,21.417 M11.095,25.841c-0.294,0-0.529-0.24-0.529-0.529
	v-5.887c0-0.293,0.239-0.529,0.529-0.529h2.206c0.294,0,0.529,0.24,0.529,0.529v5.883c0,0.293-0.238,0.529-0.529,0.529h-2.206
	V25.841z M24.979,20.994c-0.151,0.159-0.181,0.401-0.063,0.59c0,0.004,0.146,0.257,0.165,0.604c0.026,0.474-0.202,0.895-0.681,1.253
	c-0.169,0.13-0.238,0.354-0.166,0.557c0,0.004,0.156,0.482-0.097,0.934c-0.244,0.436-0.781,0.747-1.601,0.921
	c-0.654,0.141-1.545,0.166-2.638,0.079h-0.051c-2.327,0.051-4.679-0.253-4.705-0.257h-0.003l-0.365-0.044
	c0.021-0.101,0.032-0.21,0.032-0.318v-5.887c0-0.155-0.026-0.307-0.069-0.449c0.065-0.242,0.246-0.781,0.673-1.241
	c1.625-1.289,3.214-5.637,3.283-5.825c0.028-0.076,0.036-0.159,0.021-0.242c-0.062-0.406-0.039-0.902,0.047-1.05
	c0.191,0.004,0.709,0.058,1.021,0.49c0.368,0.509,0.354,1.422-0.044,2.631c-0.608,1.842-0.658,2.813-0.178,3.24
	c0.239,0.213,0.558,0.224,0.789,0.141c0.221-0.05,0.43-0.094,0.63-0.127c0.014-0.003,0.033-0.007,0.047-0.01
	c1.111-0.243,3.102-0.391,3.792,0.239c0.587,0.536,0.171,1.246,0.123,1.322c-0.133,0.202-0.093,0.467,0.088,0.63
	c0.003,0.003,0.384,0.361,0.401,0.844C25.446,20.337,25.295,20.667,24.979,20.994"/>
</svg>
