<?xml version="1.0" encoding="utf-8"?>
<!-- Generator: Adobe Illustrator 16.0.0, SVG Export Plug-In . SVG Version: 6.00 Build 0)  -->
<!DOCTYPE svg PUBLIC "-//W3C//DTD SVG 1.1//EN" "http://www.w3.org/Graphics/SVG/1.1/DTD/svg11.dtd">
<svg version="1.1" id="Layer_1" xmlns="http://www.w3.org/2000/svg" xmlns:xlink="http://www.w3.org/1999/xlink" x="0px" y="0px"
	 width="44.983px" height="44.912px" viewBox="0 0 44.983 44.912" enable-background="new 0 0 44.983 44.912" xml:space="preserve">
<g>
	<defs>
		<rect id="SVGID_1_" x="-137.509" y="-101.558" width="320" height="568"/>
	</defs>
	<clipPath id="SVGID_2_">
		<use xlink:href="#SVGID_1_"  display="none" overflow="visible"/>
	</clipPath>
	<path clip-path="url(#SVGID_2_)" fill="#6BCCE0" d="M22.491,44.912C10.09,44.912,0,34.838,0,22.456S10.09,0,22.491,0
		c12.402,0,22.492,10.074,22.492,22.456S34.894,44.912,22.491,44.912 M22.491,0.592c-12.074,0-21.898,9.808-21.898,21.864
		S10.417,44.32,22.491,44.32c12.075,0,21.899-9.808,21.899-21.864S34.566,0.592,22.491,0.592"/>
</g>
<g>
	<defs>
		<rect id="SVGID_3_" x="-137.509" y="-101.558" width="320" height="568"/>
	</defs>
	<clipPath id="SVGID_4_">
		<use xlink:href="#SVGID_3_"  display="none" overflow="visible"/>
	</clipPath>
	<path clip-path="url(#SVGID_4_)" fill="#FFFFFF" d="M40.813,22.456c0-10.102-8.203-18.292-18.32-18.292
		c-10.119,0-18.321,8.19-18.321,18.292s8.202,18.292,18.321,18.292C32.609,40.748,40.813,32.558,40.813,22.456"/>
</g>
<g>
	<defs>
		<rect id="SVGID_5_" x="-137.509" y="-101.558" width="320" height="568"/>
	</defs>
	<clipPath id="SVGID_6_">
		<use xlink:href="#SVGID_5_"  display="none" overflow="visible"/>
	</clipPath>
	<path clip-path="url(#SVGID_6_)" fill="#2A3487" d="M30.469,16.01c-0.995-1.016-2.327-1.576-3.749-1.576
		c-1.4,0-2.717,0.544-3.707,1.533l-0.512,0.511l-0.511-0.511c-0.99-0.989-2.308-1.533-3.707-1.533c-1.4,0-2.717,0.544-3.707,1.533
		c-0.99,0.988-1.535,2.303-1.535,3.701c0,1.398,0.545,2.713,1.535,3.701l6.552,6.542c0.379,0.378,0.876,0.567,1.373,0.567
		s0.994-0.189,1.373-0.567l6.51-6.499C32.428,21.371,32.467,18.05,30.469,16.01 M29.697,22.727l-6.51,6.5
		c-0.379,0.378-0.994,0.378-1.373,0l-6.552-6.542c-0.807-0.806-1.251-1.877-1.251-3.016s0.444-2.21,1.251-3.016
		s1.88-1.25,3.021-1.25s2.213,0.444,3.021,1.25l0.512,0.511l-0.784,0.783c-0.189,0.189-0.189,0.496,0,0.685
		c0.096,0.095,0.22,0.142,0.344,0.142s0.248-0.047,0.343-0.142l1.981-1.979c0.807-0.806,1.88-1.25,3.021-1.25
		c1.159,0,2.244,0.457,3.055,1.285C31.402,18.35,31.368,21.059,29.697,22.727"/>
	<path clip-path="url(#SVGID_6_)" fill="#2A3487" d="M30.255,19.448c-0.054-0.862-0.419-1.672-1.029-2.282
		c-0.433-0.432-0.969-0.745-1.552-0.907c-0.258-0.072-0.525,0.08-0.598,0.337c-0.072,0.258,0.079,0.525,0.338,0.597
		c0.422,0.118,0.811,0.346,1.125,0.659c0.443,0.442,0.709,1.031,0.747,1.656c0.017,0.257,0.229,0.455,0.484,0.455
		c0.01,0,0.02,0,0.03-0.001C30.068,19.945,30.271,19.715,30.255,19.448"/>
</g>
</svg>
