<?xml version="1.0" encoding="utf-8"?>
<!-- Generator: Adobe Illustrator 16.0.0, SVG Export Plug-In . SVG Version: 6.00 Build 0)  -->
<!DOCTYPE svg PUBLIC "-//W3C//DTD SVG 1.1//EN" "http://www.w3.org/Graphics/SVG/1.1/DTD/svg11.dtd">
<svg version="1.1" id="Layer_1" xmlns="http://www.w3.org/2000/svg" xmlns:xlink="http://www.w3.org/1999/xlink" x="0px" y="0px"
	 width="71.678px" height="71.531px" viewBox="0 0 71.678 71.531" enable-background="new 0 0 71.678 71.531" xml:space="preserve">
<path fill="#FFFFFF" d="M67.927,35.766c0-17.685-14.366-32.021-32.087-32.021c-17.722,0-32.088,14.336-32.088,32.021
	S18.118,67.787,35.84,67.787C53.561,67.787,67.927,53.45,67.927,35.766"/>
<path fill="#6BCCE0" d="M35.84,71.531C16.078,71.531,0,55.486,0,35.766C0,16.044,16.078,0,35.84,0s35.838,16.044,35.838,35.766
	C71.678,55.486,55.602,71.531,35.84,71.531 M35.84,0.887c-19.271,0-34.951,15.646-34.951,34.878
	c0,19.232,15.68,34.878,34.951,34.878s34.949-15.646,34.949-34.878C70.789,16.534,55.111,0.887,35.84,0.887"/>
<path fill="#2A3487" d="M57.153,44.389H56.15c0.471-0.628,0.752-1.408,0.752-2.252c0-1.813-1.295-3.331-3.011-3.679
	c-0.094-3.921-3.32-7.082-7.271-7.082c-0.2,0-0.398,0.008-0.6,0.024c-0.429-1.324-1.244-2.514-2.334-3.401
	c-1.291-1.05-2.919-1.628-4.589-1.628c-1.667,0-3.299,0.578-4.588,1.628c-1.093,0.887-1.903,2.078-2.333,3.401
	c-0.2-0.016-0.401-0.024-0.604-0.024c-2.115,0-4.122,0.918-5.508,2.522c-0.271,0.314-0.233,0.788,0.081,1.058
	c0.313,0.271,0.786,0.236,1.061-0.079c1.098-1.271,2.69-2,4.366-2c0.339,0,0.682,0.03,1.024,0.092
	c0.397,0.071,0.782-0.185,0.869-0.578c0.572-2.619,2.941-4.52,5.631-4.52s5.058,1.901,5.634,4.52
	c0.086,0.393,0.468,0.649,0.865,0.578c0.343-0.062,0.69-0.092,1.023-0.092c3.182,0,5.767,2.582,5.767,5.754
	c0,0.133-0.005,0.275-0.018,0.445c-0.017,0.21,0.058,0.416,0.203,0.57c0.141,0.15,0.339,0.236,0.547,0.236h0.031
	c1.24,0.004,2.245,1.013,2.245,2.252c0,1.242-1.009,2.252-2.255,2.252h-5.265v-5.256c0-0.414-0.338-0.75-0.754-0.75
	c-1.727,0-2.537-0.424-3.472-0.915c-0.977-0.509-2.078-1.086-4.177-1.086c-2.097,0-3.198,0.577-4.174,1.086
	c-0.937,0.491-1.746,0.915-3.475,0.915c-1.726,0-2.538-0.424-3.476-0.915c-0.972-0.509-2.073-1.086-4.173-1.086
	c-2.097,0-3.2,0.577-4.174,1.086c-0.938,0.491-1.748,0.915-3.472,0.915c-0.416,0-0.755,0.336-0.755,0.75v5.256h-1.253
	c-1.245,0-2.257,1.01-2.257,2.252c0,1.041,0.71,1.919,1.674,2.178l0.79,2.628c0.414,1.374,1.864,2.452,3.303,2.452h35.608
	c1.44,0,2.891-1.078,3.303-2.452l0.791-2.628c0.964-0.259,1.673-1.137,1.673-2.178C59.409,45.398,58.396,44.389,57.153,44.389
	 M17.282,39.857c1.622-0.118,2.572-0.615,3.422-1.061c0.937-0.49,1.746-0.914,3.474-0.914c1.727,0,2.537,0.424,3.476,0.914
	c0.973,0.51,2.074,1.088,4.173,1.088c2.097,0,3.2-0.578,4.174-1.088c0.938-0.49,1.749-0.914,3.475-0.914
	c1.727,0,2.536,0.424,3.476,0.914c0.85,0.445,1.797,0.942,3.422,1.061v1.497c-1.232-0.106-1.935-0.47-2.725-0.884
	c-0.704-0.368-1.433-0.748-2.533-0.949c-0.406-0.074-0.801,0.196-0.875,0.604c-0.073,0.408,0.199,0.799,0.607,0.873
	c0.875,0.16,1.471,0.473,2.104,0.803c0.85,0.443,1.797,0.941,3.422,1.06v1.527h-29.09V42.86c1.622-0.118,2.572-0.616,3.422-1.062
	c0.937-0.49,1.746-0.913,3.474-0.913c1.729,0,2.537,0.423,3.476,0.913c0.973,0.512,2.074,1.089,4.173,1.089
	c2.097,0,3.2-0.577,4.174-1.087c0.633-0.332,1.23-0.643,2.104-0.803c0.409-0.074,0.681-0.465,0.605-0.873
	c-0.074-0.408-0.466-0.678-0.875-0.604c-1.1,0.201-1.829,0.581-2.534,0.949c-0.937,0.492-1.746,0.916-3.475,0.916
	c-1.726,0-2.538-0.424-3.476-0.916c-0.972-0.51-2.073-1.086-4.173-1.086c-2.097,0-3.2,0.576-4.174,1.086
	c-0.788,0.414-1.488,0.777-2.722,0.884V39.857z M57.153,47.392h-0.01H20.54c-0.412,0-0.75,0.336-0.75,0.751
	c0,0.414,0.338,0.75,0.75,0.75h35.603l-0.637,2.121c-0.222,0.736-1.093,1.383-1.863,1.383H18.036c-0.772,0-1.641-0.646-1.864-1.383
	l-0.638-2.121h2c0.412,0,0.75-0.336,0.75-0.75c0-0.415-0.338-0.751-0.75-0.751h-2.999h-0.009c-0.418,0-0.754-0.337-0.754-0.751
	s0.336-0.751,0.752-0.751h42.629c0.417,0,0.752,0.337,0.752,0.751S57.57,47.392,57.153,47.392"/>
<path fill="#2A3487" d="M33.834,21.367c0-1.187,0.304-1.747,0.659-2.394c0.397-0.724,0.845-1.545,0.845-3.113
	c0-1.568-0.447-2.388-0.845-3.112c-0.199-0.365-0.656-0.498-1.02-0.299c-0.366,0.198-0.501,0.653-0.301,1.018
	c0.355,0.648,0.661,1.209,0.661,2.393c0,1.186-0.306,1.745-0.661,2.394c-0.396,0.724-0.844,1.544-0.844,3.113
	c0,1.566,0.448,2.387,0.844,3.111c0.137,0.25,0.395,0.391,0.661,0.391c0.12,0,0.246-0.028,0.361-0.091
	c0.363-0.199,0.497-0.655,0.298-1.019C34.138,23.111,33.834,22.551,33.834,21.367"/>
<path fill="#2A3487" d="M37.847,21.367c0-1.187,0.303-1.747,0.659-2.394c0.396-0.724,0.845-1.545,0.845-3.113
	c0-1.568-0.449-2.388-0.845-3.112c-0.199-0.365-0.656-0.498-1.022-0.299c-0.363,0.198-0.498,0.653-0.299,1.018
	c0.355,0.648,0.662,1.209,0.662,2.393c0,1.186-0.307,1.745-0.662,2.394c-0.395,0.724-0.844,1.544-0.844,3.113
	c0,1.566,0.449,2.387,0.844,3.111c0.138,0.25,0.395,0.391,0.662,0.391c0.121,0,0.245-0.028,0.357-0.091
	c0.367-0.199,0.5-0.655,0.302-1.019C38.149,23.111,37.847,22.551,37.847,21.367"/>
</svg>
