<?xml version="1.0" encoding="utf-8"?>
<!-- Generator: Adobe Illustrator 16.0.0, SVG Export Plug-In . SVG Version: 6.00 Build 0)  -->
<!DOCTYPE svg PUBLIC "-//W3C//DTD SVG 1.1//EN" "http://www.w3.org/Graphics/SVG/1.1/DTD/svg11.dtd">
<svg version="1.1" id="Layer_1" xmlns="http://www.w3.org/2000/svg" xmlns:xlink="http://www.w3.org/1999/xlink" x="0px" y="0px"
	 width="52.096px" height="51.869px" viewBox="0 0 52.096 51.869" enable-background="new 0 0 52.096 51.869" xml:space="preserve">
<g>
	<defs>
		<rect id="SVGID_1_" x="-194.015" y="-407.452" width="320" height="568"/>
	</defs>
	<clipPath id="SVGID_2_">
		<use xlink:href="#SVGID_1_"  display="none" overflow="visible"/>
	</clipPath>
	<path clip-path="url(#SVGID_2_)" fill="#FFFFFF" d="M52.096,25.935C52.096,11.611,40.434,0,26.048,0S0,11.611,0,25.935
		s11.662,25.935,26.048,25.935S52.096,40.258,52.096,25.935 M2.368,25.935c0-13.021,10.602-23.578,23.68-23.578
		s23.68,10.557,23.68,23.578s-10.602,23.577-23.68,23.577S2.368,38.956,2.368,25.935"/>
	<path clip-path="url(#SVGID_2_)" fill="#FFFFFF" d="M40.858,18.492c-0.001-0.834-0.683-1.51-1.519-1.51h-0.003l-26.603,0.035
		c-0.406,0.001-0.787,0.159-1.074,0.445s-0.444,0.666-0.444,1.07l0.021,14.883c0.002,0.405,0.159,0.784,0.447,1.069
		c0.287,0.285,0.668,0.442,1.073,0.442h0.001l26.604-0.037c0.838,0,1.519-0.68,1.518-1.515L40.858,18.492z M37.67,18.497
		L26.049,26.54l-11.644-8.012L37.67,18.497z M30.963,28.059l6.893,5.322L14.22,33.413l6.936-5.354
		c0.331-0.256,0.391-0.731,0.134-1.062s-0.734-0.39-1.065-0.135l-7.469,5.768l-0.019-13.41l12.882,8.863
		c0.13,0.09,0.281,0.134,0.432,0.134c0.152,0,0.304-0.045,0.434-0.136l12.856-8.897l0.021,13.443l-7.466-5.765
		c-0.332-0.255-0.81-0.195-1.065,0.135C30.571,27.327,30.632,27.803,30.963,28.059"/>
</g>
</svg>
