<?xml version="1.0" encoding="utf-8"?>
<!-- Generator: Adobe Illustrator 16.0.0, SVG Export Plug-In . SVG Version: 6.00 Build 0)  -->
<!DOCTYPE svg PUBLIC "-//W3C//DTD SVG 1.1//EN" "http://www.w3.org/Graphics/SVG/1.1/DTD/svg11.dtd">
<svg version="1.1" id="Layer_1" xmlns="http://www.w3.org/2000/svg" xmlns:xlink="http://www.w3.org/1999/xlink" x="0px" y="0px"
	 width="31.05px" height="31.077px" viewBox="0 0 31.05 31.077" enable-background="new 0 0 31.05 31.077" xml:space="preserve">
<path fill="#2A3487" d="M31.05,15.538C31.05,6.957,24.099,0,15.525,0C6.951,0,0,6.957,0,15.538c0,8.582,6.951,15.539,15.525,15.539
	C24.099,31.077,31.05,24.12,31.05,15.538"/>
<path fill="#FFFFFF" d="M23.198,23.31h-0.604v-0.764h0.604c0.231,0,0.42-0.188,0.42-0.42c0-2.349-1.801-4.284-4.092-4.497V16.9
	c0-0.232-0.189-0.421-0.42-0.421c-0.233,0-0.422,0.188-0.422,0.421v0.729c-2.291,0.213-4.092,2.148-4.092,4.497
	c0,0.232,0.188,0.42,0.421,0.42h0.602v0.764h-0.602c-0.233,0-0.421,0.188-0.421,0.42c0,0.233,0.188,0.422,0.421,0.422h1.015h0.016
	h6.123h0.008h0.008h1.016c0.231,0,0.42-0.188,0.42-0.422C23.618,23.498,23.43,23.31,23.198,23.31 M21.754,23.31h-5.297v-0.764h5.297
	V23.31z M15.458,21.705c0.209-1.829,1.766-3.254,3.648-3.254c1.882,0,3.438,1.425,3.646,3.254H15.458z M12.456,11.021
	c-1.236,0-2.204,0.707-2.204,1.611c0,0.902,0.968,1.61,2.204,1.61c1.235,0,2.204-0.708,2.204-1.61
	C14.659,11.729,13.691,11.021,12.456,11.021 M12.456,13.401c-0.803,0-1.362-0.405-1.362-0.769c0-0.364,0.559-0.77,1.362-0.77
	s1.362,0.405,1.362,0.77C13.818,12.996,13.259,13.401,12.456,13.401 M13.446,23.31H8.272V9.815h8.366v7.009
	c0,0.233,0.188,0.422,0.421,0.422s0.42-0.188,0.42-0.422v-7.43c0-0.232-0.188-0.421-0.42-0.421h-0.198V7.347
	c0-0.121-0.052-0.235-0.141-0.315c-0.09-0.08-0.21-0.117-0.329-0.103l-8.59,1.024C7.59,7.978,7.431,8.158,7.431,8.37v15.36
	c0,0.232,0.189,0.421,0.421,0.421h5.594c0.232,0,0.421-0.188,0.421-0.421S13.678,23.31,13.446,23.31 M8.272,8.745l7.749-0.924v1.153
	H8.272V8.745z M11.747,22.104c-0.232,0-0.42-0.189-0.42-0.421c0-0.232,0.188-0.422,0.42-0.422h1.417c0.232,0,0.42,0.189,0.42,0.422
	c0,0.231-0.188,0.421-0.42,0.421H11.747z"/>
</svg>
