<?xml version="1.0" encoding="utf-8"?>
<!-- Generator: Adobe Illustrator 16.0.0, SVG Export Plug-In . SVG Version: 6.00 Build 0)  -->
<!DOCTYPE svg PUBLIC "-//W3C//DTD SVG 1.1//EN" "http://www.w3.org/Graphics/SVG/1.1/DTD/svg11.dtd">
<svg version="1.1" id="Layer_1" xmlns="http://www.w3.org/2000/svg" xmlns:xlink="http://www.w3.org/1999/xlink" x="0px" y="0px"
	 width="35.561px" height="35.576px" viewBox="0 0 35.561 35.576" enable-background="new 0 0 35.561 35.576" xml:space="preserve">
<ellipse fill="none" stroke="#FFFFFF" stroke-miterlimit="10" cx="17.78" cy="17.787" rx="17.28" ry="17.287"/>
<path fill="#FFFFFF" d="M33.313,17.787c0-8.581-6.954-15.538-15.531-15.538c-8.579,0-15.533,6.957-15.533,15.538
	c0,8.582,6.954,15.539,15.533,15.539C26.358,33.326,33.313,26.369,33.313,17.787"/>
<path fill="#2A3487" d="M25.457,25.558h-0.603v-0.762h0.603c0.231,0,0.421-0.189,0.421-0.422c0-2.349-1.801-4.284-4.094-4.497V19.15
	c0-0.232-0.189-0.422-0.421-0.422c-0.233,0-0.421,0.189-0.421,0.422v0.728c-2.293,0.213-4.095,2.148-4.095,4.497
	c0,0.232,0.188,0.422,0.421,0.422h0.602v0.762h-0.602c-0.233,0-0.421,0.188-0.421,0.421s0.188,0.421,0.421,0.421h1.016H18.3h6.125
	h0.009h0.008h1.016c0.231,0,0.421-0.188,0.421-0.421S25.688,25.558,25.457,25.558 M24.013,25.558h-5.3v-0.762h5.3V25.558z
	 M17.713,23.954c0.209-1.829,1.766-3.253,3.65-3.253s3.44,1.424,3.649,3.253H17.713z M14.71,13.271
	c-1.237,0-2.205,0.707-2.205,1.611c0,0.903,0.968,1.611,2.205,1.611c1.236,0,2.205-0.708,2.205-1.611
	C16.915,13.978,15.946,13.271,14.71,13.271 M14.71,15.65c-0.803,0-1.363-0.406-1.363-0.769c0-0.364,0.56-0.769,1.363-0.769
	s1.363,0.405,1.363,0.769C16.073,15.245,15.513,15.65,14.71,15.65 M15.701,25.558h-5.176V12.064h8.371v7.009
	c0,0.232,0.188,0.422,0.42,0.422s0.421-0.189,0.421-0.422v-7.43c0-0.233-0.188-0.421-0.421-0.421h-0.197V9.596
	c0-0.121-0.053-0.235-0.142-0.315s-0.21-0.117-0.329-0.103l-8.593,1.024c-0.211,0.025-0.372,0.205-0.372,0.418v15.36
	c0,0.232,0.189,0.42,0.421,0.42h5.597c0.233,0,0.421-0.188,0.421-0.42C16.122,25.747,15.934,25.558,15.701,25.558 M10.524,10.993
	l7.752-0.923v1.152h-7.752V10.993z M14.001,24.351c-0.232,0-0.42-0.188-0.42-0.42s0.188-0.421,0.42-0.421h1.417
	c0.232,0,0.42,0.188,0.42,0.421s-0.188,0.42-0.42,0.42H14.001z"/>
</svg>
