<?xml version="1.0" encoding="utf-8"?>
<!-- Generator: Adobe Illustrator 16.0.0, SVG Export Plug-In . SVG Version: 6.00 Build 0)  -->
<!DOCTYPE svg PUBLIC "-//W3C//DTD SVG 1.1//EN" "http://www.w3.org/Graphics/SVG/1.1/DTD/svg11.dtd">
<svg version="1.1" id="Layer_1" xmlns="http://www.w3.org/2000/svg" xmlns:xlink="http://www.w3.org/1999/xlink" x="0px" y="0px"
	 width="71.679px" height="71.53px" viewBox="0 0 71.679 71.53" enable-background="new 0 0 71.679 71.53" xml:space="preserve">
<path fill="#FFFFFF" d="M67.927,35.766c0-17.685-14.366-32.021-32.087-32.021c-17.722,0-32.088,14.337-32.088,32.021
	S18.118,67.787,35.84,67.787C53.561,67.787,67.927,53.45,67.927,35.766"/>
<path fill="#6BCCE0" d="M35.84,71.53C16.078,71.53,0,55.486,0,35.765C0,16.044,16.078,0,35.84,0
	c19.761,0,35.839,16.044,35.839,35.765C71.679,55.486,55.601,71.53,35.84,71.53 M35.84,0.888c-19.272,0-34.951,15.646-34.951,34.877
	c0,19.232,15.679,34.878,34.951,34.878s34.951-15.646,34.951-34.878C70.791,16.533,55.112,0.888,35.84,0.888"/>
<path fill="#2A3487" d="M33.705,57.587c-0.048,0-0.097-0.007-0.146-0.02c-0.241-0.065-0.409-0.285-0.409-0.534
	c0-0.079,0.013-0.139,0.021-0.171c0.092-0.571,0.142-1.169,0.156-1.884c0.018-0.939-0.026-1.777-0.133-2.561
	c-0.506-4.152-2.482-7.984-5.566-10.799l-0.123-0.111c-0.166-0.152-0.314-0.288-0.466-0.446c-0.814-0.745-1.601-1.665-2.314-2.71
	c-0.034-0.037-0.062-0.078-0.084-0.12c-0.249-0.349-0.443-0.703-0.592-0.994c-0.028-0.03-0.052-0.063-0.072-0.1
	c-1.421-2.503-2.141-5.374-2.082-8.303c0.022-0.924,0.119-1.817,0.299-2.731c0.229-1.347,0.662-2.66,1.323-4
	c0.167-0.402,0.34-0.737,0.545-1.054c0.468-0.812,1.065-1.655,1.761-2.483c0.188-0.237,0.432-0.498,0.757-0.808
	c2.621-2.536,6.112-3.885,9.788-3.812c7.555,0.159,13.573,6.44,13.416,14.003v0.001c-0.099,4.397-2.318,8.506-5.938,10.989
	c-0.017,0.012-0.034,0.022-0.053,0.031c-0.168,0.09-0.3,0.161-0.407,0.265c-0.023,0.022-0.049,0.043-0.076,0.062
	c-1.248,0.839-2.361,1.867-3.308,3.056c-0.16,0.201-0.438,0.267-0.673,0.156c-0.189-0.09-0.309-0.276-0.316-0.479
	c-0.113-0.479-0.698-2.921-0.97-3.761c-0.271-0.846-1.464-3.317-1.476-3.342c-0.121-0.25-0.037-0.552,0.196-0.704
	c1.361-0.889,1.552-2.392,1.473-3.497c-0.001-0.019-0.002-0.037-0.001-0.056c-0.009-0.285-0.044-0.573-0.104-0.857l-1.146-5.97
	c-0.026-0.134-0.157-0.219-0.299-0.194l-0.118,0.023c-0.13,0.025-0.229,0.162-0.205,0.284l0.935,5.005
	c0.067,0.339-0.006,0.694-0.208,0.993c-0.206,0.304-0.531,0.517-0.891,0.583l-0.142,0.022c-0.337,0.067-0.712-0.012-1.01-0.219
	c-0.297-0.208-0.492-0.519-0.547-0.875l-0.94-4.974c-0.011-0.059-0.047-0.111-0.103-0.149c-0.06-0.041-0.133-0.057-0.195-0.046
	l-0.093,0.025c-0.127,0.025-0.179,0.083-0.201,0.115c-0.02,0.03-0.052,0.092-0.036,0.17l0.937,4.999
	c0.135,0.742-0.351,1.453-1.08,1.59l-0.15,0.019c-0.715,0.133-1.387-0.3-1.535-0.991l-0.953-5.075
	c-0.027-0.137-0.156-0.22-0.305-0.193l-0.142,0.021c-0.064,0.014-0.111,0.062-0.137,0.099c-0.035,0.053-0.048,0.116-0.036,0.179
	l0.993,5.227c0.004,0.022,0.007,0.045,0.008,0.067c0.012,0.179,0.033,0.442,0.082,0.673c0.273,1.431,0.999,3.21,2.915,3.623
	c0.143,0.03,0.268,0.116,0.347,0.238c0.058,0.088,1.418,2.198,2.442,6.037c0.863,3.189,0.616,7.235,0.52,8.399l-0.005,0.06
	c-0.011,0.097-0.02,0.184-0.027,0.271c-0.011,0.119-0.022,0.241-0.038,0.36c-0.424,2.53-1.292,4.913-2.583,7.102
	C34.082,57.486,33.897,57.587,33.705,57.587 M25.647,37.737c0.665,0.972,1.394,1.824,2.168,2.534
	c0.16,0.166,0.291,0.285,0.437,0.418l0.125,0.114c3.278,2.991,5.379,7.066,5.916,11.473c0.088,0.645,0.137,1.325,0.145,2.064
	c0.571-1.366,0.978-2.786,1.23-4.292c0.011-0.085,0.021-0.192,0.03-0.298c0.009-0.099,0.018-0.195,0.029-0.288l0.004-0.04
	c0.091-1.112,0.33-4.997-0.487-8.015c-0.811-3.038-1.853-4.963-2.19-5.539c-1.829-0.496-3.078-2.059-3.53-4.429
	c-0.058-0.271-0.083-0.559-0.099-0.784l-0.986-5.19c-0.068-0.351,0.004-0.71,0.206-1.009c0.202-0.298,0.51-0.5,0.867-0.568
	l0.148-0.023c0.733-0.134,1.431,0.34,1.578,1.075l0.951,5.067c0.019,0.085,0.13,0.144,0.251,0.119
	c0.014-0.003,0.029-0.005,0.043-0.007l0.136-0.016c0.114-0.022,0.18-0.17,0.157-0.296l-0.935-4.988c-0.069-0.343,0.004-0.7,0.206-1
	c0.205-0.304,0.518-0.508,0.878-0.575l0.091-0.025c0.387-0.075,0.763,0.005,1.066,0.212c0.302,0.206,0.503,0.512,0.567,0.86
	l0.942,4.988c0.014,0.089,0.056,0.132,0.089,0.155c0.031,0.021,0.094,0.054,0.179,0.037l0.149-0.024
	c0.056-0.011,0.12-0.053,0.16-0.113c0.021-0.029,0.052-0.09,0.038-0.162l-0.936-5.006c-0.143-0.721,0.341-1.432,1.079-1.579
	l0.131-0.025c0.743-0.134,1.452,0.352,1.591,1.074l1.145,5.959c0.067,0.319,0.109,0.652,0.123,0.983
	c0.01,0.054,0.013,0.109,0.007,0.163c0.103,1.745-0.455,3.187-1.584,4.119c0.362,0.763,1.111,2.369,1.336,3.071
	c0.194,0.604,0.529,1.937,0.761,2.882c0.836-0.912,1.771-1.72,2.792-2.409c0.197-0.181,0.403-0.295,0.59-0.394
	c3.313-2.285,5.343-6.053,5.433-10.085c0.145-6.952-5.387-12.727-12.33-12.873c-3.401-0.071-6.586,1.172-8.995,3.503
	c-0.287,0.272-0.504,0.504-0.667,0.71c-0.665,0.79-1.224,1.58-1.675,2.36c-0.183,0.283-0.327,0.563-0.481,0.935
	c-0.627,1.273-1.029,2.487-1.242,3.741c-0.17,0.866-0.261,1.697-0.281,2.556c-0.055,2.697,0.599,5.343,1.892,7.653
	c0.033,0.037,0.062,0.078,0.085,0.122l0.003-0.002c0.143,0.286,0.34,0.66,0.594,1.006c0.002,0.003,0.004,0.005,0.006,0.007
	C25.609,37.675,25.631,37.706,25.647,37.737"/>
</svg>
