<?xml version="1.0" encoding="utf-8"?>
<!-- Generator: Adobe Illustrator 16.0.0, SVG Export Plug-In . SVG Version: 6.00 Build 0)  -->
<!DOCTYPE svg PUBLIC "-//W3C//DTD SVG 1.1//EN" "http://www.w3.org/Graphics/SVG/1.1/DTD/svg11.dtd">
<svg version="1.1" id="Layer_1" xmlns="http://www.w3.org/2000/svg" xmlns:xlink="http://www.w3.org/1999/xlink" x="0px" y="0px"
	 width="13.05px" height="30.852px" viewBox="0 0 13.05 30.852" enable-background="new 0 0 13.05 30.852" xml:space="preserve">
<path fill="#2A3487" d="M9.075,2.597c0,1.435-1.163,2.597-2.6,2.597c-1.434,0-2.6-1.162-2.6-2.597C3.875,1.162,5.041,0,6.475,0
	C7.912,0,9.075,1.162,9.075,2.597"/>
<path fill="#2A3487" d="M7.382,6.432C6.734,6.299,6.03,6.308,5.393,6.457C1.07,6.963-0.333,11.96,0.064,15.769
	c0.172,1.649,2.772,1.666,2.597,0c-0.144-1.386-0.082-3.482,0.656-4.974v5.434c0,0.062,0.006,0.124,0.009,0.185
	c0,0.028-0.009,0.055-0.009,0.083c0,4.31-0.005,8.616-0.186,12.923c-0.079,1.914,2.893,1.906,2.971,0
	c0.142-3.375,0.175-6.751,0.183-10.127c0.141,0.008,0.282,0.008,0.423,0c0.008,3.376,0.042,6.755,0.181,10.127
	c0.078,1.906,3.05,1.914,2.972,0c-0.178-4.307-0.184-8.613-0.184-12.923c0-0.134-0.02-0.254-0.046-0.372
	c-0.005-1.871-0.075-3.742-0.056-5.613c0.887,1.497,0.967,3.778,0.813,5.258c-0.175,1.663,2.425,1.646,2.597,0
	C13.392,11.878,11.921,6.752,7.382,6.432"/>
</svg>
