<?xml version="1.0" encoding="utf-8"?>
<!-- Generator: Adobe Illustrator 16.0.0, SVG Export Plug-In . SVG Version: 6.00 Build 0)  -->
<!DOCTYPE svg PUBLIC "-//W3C//DTD SVG 1.1//EN" "http://www.w3.org/Graphics/SVG/1.1/DTD/svg11.dtd">
<svg version="1.1" id="Layer_1" xmlns="http://www.w3.org/2000/svg" xmlns:xlink="http://www.w3.org/1999/xlink" x="0px" y="0px"
	 width="19.231px" height="17.38px" viewBox="0 0 19.231 17.38" enable-background="new 0 0 19.231 17.38" xml:space="preserve">
<g>
	<defs>
		<rect id="SVGID_1_" x="-20.032" y="-26.81" width="320" height="568"/>
	</defs>
	<clipPath id="SVGID_2_">
		<use xlink:href="#SVGID_1_"  display="none" overflow="visible"/>
	</clipPath>
	<path clip-path="url(#SVGID_2_)" fill="#2A3487" d="M0.03,7.272c0.167,1.766,1.014,3.364,2.385,4.496
		c1.415,1.172,3.177,1.656,4.872,1.496c1.552-0.146,3.056-0.833,4.195-2.029l0.864,0.718l-0.727,0.878
		c-0.081,0.097-0.119,0.22-0.106,0.343c0.012,0.127,0.072,0.241,0.169,0.322l4.128,3.408c0.427,0.357,0.97,0.519,1.526,0.467
		c0.558-0.052,1.055-0.313,1.412-0.744c0.358-0.431,0.524-0.973,0.473-1.523c-0.053-0.557-0.319-1.058-0.751-1.415l-4.127-3.408
		c-0.097-0.075-0.22-0.118-0.343-0.106c-0.128,0.012-0.241,0.078-0.322,0.169l-0.728,0.883l-0.863-0.713
		c0.936-1.305,1.363-2.884,1.211-4.492c-0.167-1.767-1.015-3.365-2.385-4.496C8.079-0.814,3.873-0.417,1.529,2.41
		C0.395,3.777-0.138,5.505,0.03,7.272 M12.646,13.066l1.461-1.756l3.761,3.105c0.238,0.196,0.384,0.47,0.413,0.775
		c0.028,0.3-0.063,0.597-0.261,0.833c-0.191,0.236-0.465,0.381-0.771,0.411c-0.305,0.028-0.603-0.063-0.835-0.259L12.646,13.066z
		 M0.972,7.183C0.828,5.667,1.284,4.185,2.259,3.011c1.003-1.212,2.41-1.905,3.865-2.043c1.458-0.137,2.971,0.281,4.186,1.284
		c1.177,0.971,1.903,2.342,2.046,3.858c0.144,1.515-0.312,2.998-1.286,4.172c-2.008,2.428-5.623,2.769-8.05,0.759
		C1.841,10.069,1.115,8.698,0.972,7.183"/>
	<path clip-path="url(#SVGID_2_)" fill="#2A3487" d="M4.746,2.419c0.876-1.055,2.447-1.203,3.505-0.33
		c0.2,0.166,0.229,0.463,0.063,0.664C8.147,2.954,7.848,2.982,7.647,2.816c-0.655-0.542-1.63-0.45-2.173,0.205
		c-0.084,0.1-0.2,0.157-0.319,0.169C5.035,3.201,4.91,3.167,4.809,3.084C4.608,2.917,4.581,2.62,4.746,2.419"/>
</g>
</svg>
