<?xml version="1.0" encoding="utf-8"?>
<!-- Generator: Adobe Illustrator 16.0.0, SVG Export Plug-In . SVG Version: 6.00 Build 0)  -->
<!DOCTYPE svg PUBLIC "-//W3C//DTD SVG 1.1//EN" "http://www.w3.org/Graphics/SVG/1.1/DTD/svg11.dtd">
<svg version="1.1" id="Layer_1" xmlns="http://www.w3.org/2000/svg" xmlns:xlink="http://www.w3.org/1999/xlink" x="0px" y="0px"
	 width="46.961px" height="46.892px" viewBox="0 0 46.961 46.892" enable-background="new 0 0 46.961 46.892" xml:space="preserve">
<path fill="#FFFFFF" d="M41.823,23.446c0-10.113-8.212-18.313-18.342-18.313S5.14,13.333,5.14,23.446
	c0,10.114,8.211,18.312,18.341,18.312S41.823,33.56,41.823,23.446"/>
<ellipse fill="none" stroke="#6BCCE0" stroke-width="2" stroke-miterlimit="10" cx="23.481" cy="23.446" rx="22.481" ry="22.446"/>
<path fill="#2A3487" d="M31.07,13.713c-3.23-3.227-8.479-3.227-11.71,0c-1.564,1.56-2.425,3.637-2.425,5.844
	c0,2.008,0.714,3.914,2.025,5.418l-0.984,0.984l-1.003-1.008c-0.111-0.105-0.26-0.172-0.419-0.172c-0.154,0-0.301,0.066-0.413,0.172
	l-4.707,4.7c-0.493,0.491-0.763,1.144-0.763,1.837c0,0.688,0.271,1.341,0.763,1.832c0.492,0.492,1.138,0.756,1.833,0.756
	s1.349-0.264,1.834-0.756l4.708-4.701c0.111-0.11,0.173-0.258,0.173-0.418c0-0.153-0.063-0.301-0.173-0.41l-1.002-1.004l0.984-0.988
	c1.551,1.346,3.49,2.021,5.428,2.021c2.117,0,4.24-0.805,5.853-2.421c1.563-1.562,2.425-3.637,2.425-5.843
	C33.495,17.35,32.633,15.273,31.07,13.713 M14.27,32.49c-0.265,0.271-0.622,0.418-1.003,0.418c-0.382,0-0.739-0.147-1.003-0.418
	c-0.271-0.27-0.418-0.626-0.418-1.002c0-0.381,0.147-0.736,0.418-1.008l4.29-4.282l2.013,2.003L14.27,32.49z M30.24,24.57
	c-2.769,2.771-7.281,2.771-10.05,0c-1.342-1.339-2.08-3.122-2.08-5.014c0-1.893,0.738-3.675,2.08-5.015
	c1.385-1.382,3.207-2.077,5.028-2.077c1.816,0,3.638,0.695,5.022,2.077c1.342,1.339,2.08,3.122,2.08,5.015
	C32.32,21.448,31.582,23.231,30.24,24.57"/>
<path fill="#2A3487" d="M27.091,14.101c-1.206-1.204-3.167-1.204-4.373,0c-0.23,0.229-0.23,0.6,0,0.83
	c0.229,0.229,0.601,0.229,0.83,0c0.749-0.747,1.965-0.747,2.713,0c0.115,0.115,0.265,0.171,0.416,0.171
	c0.148,0,0.299-0.057,0.414-0.171C27.321,14.701,27.321,14.329,27.091,14.101"/>
</svg>
