<?xml version="1.0" encoding="utf-8"?>
<!-- Generator: Adobe Illustrator 16.0.0, SVG Export Plug-In . SVG Version: 6.00 Build 0)  -->
<!DOCTYPE svg PUBLIC "-//W3C//DTD SVG 1.1//EN" "http://www.w3.org/Graphics/SVG/1.1/DTD/svg11.dtd">
<svg version="1.1" id="Layer_1" xmlns="http://www.w3.org/2000/svg" xmlns:xlink="http://www.w3.org/1999/xlink" x="0px" y="0px"
	 width="320px" height="568px" viewBox="0 0 320 568" enable-background="new 0 0 320 568" xml:space="preserve">
<g>
	<defs>
		<rect id="SVGID_1_" width="320" height="568"/>
	</defs>
	<clipPath id="SVGID_2_">
		<use xlink:href="#SVGID_1_"  overflow="visible"/>
	</clipPath>
	
		<linearGradient id="SVGID_3_" gradientUnits="userSpaceOnUse" x1="-378.647" y1="1245.002" x2="-378.3511" y2="1245.002" gradientTransform="matrix(1.000000e-007 -1920 -1920 -1.000000e-007 2390560 -726435)">
		<stop  offset="0" style="stop-color:#2A3487"/>
		<stop  offset="0.0366" style="stop-color:#2A3487"/>
		<stop  offset="0.9686" style="stop-color:#2A3487"/>
		<stop  offset="1" style="stop-color:#2A3487"/>
	</linearGradient>
	<rect clip-path="url(#SVGID_2_)" fill="url(#SVGID_3_)" width="320" height="568"/>
</g>
<g>
	<defs>
		<rect id="SVGID_4_" width="320" height="568"/>
	</defs>
	<clipPath id="SVGID_5_">
		<use xlink:href="#SVGID_4_"  overflow="visible"/>
	</clipPath>
	<path clip-path="url(#SVGID_5_)" fill="#6BCCE0" d="M160,389.68c-14.328,0-28.229-2.794-41.314-8.305
		c-12.639-5.323-23.989-12.942-33.737-22.647c-9.747-9.706-17.4-21.008-22.746-33.592C56.667,312.106,53.86,298.267,53.86,284
		s2.807-28.106,8.342-41.136c5.346-12.584,12.999-23.886,22.746-33.591c9.748-9.705,21.099-17.325,33.737-22.647
		c13.086-5.511,26.986-8.305,41.314-8.305s28.229,2.794,41.314,8.305c12.639,5.323,23.989,12.942,33.737,22.647
		c9.747,9.705,17.4,21.007,22.746,33.591c5.534,13.029,8.341,26.869,8.341,41.136s-2.807,28.106-8.341,41.136
		c-5.346,12.584-12.999,23.886-22.746,33.592c-9.748,9.705-21.099,17.324-33.737,22.647C188.229,386.886,174.328,389.68,160,389.68
		 M160,178.912c-58.198,0-105.547,47.143-105.547,105.088S101.802,389.088,160,389.088S265.546,341.945,265.546,284
		S218.198,178.912,160,178.912"/>
	<path clip-path="url(#SVGID_5_)" fill="#2A3487" d="M255.396,284c0,52.457-42.71,94.982-95.395,94.982
		c-52.688,0-95.396-42.525-95.396-94.982s42.709-94.983,95.396-94.983C212.686,189.017,255.396,231.543,255.396,284"/>
	<path clip-path="url(#SVGID_5_)" fill="#6BCCE0" d="M121.89,332.953l-5.091-0.035l-0.068,11.257l-4.028-0.029l0.155-25.499
		l8.85,0.062c5.984,0.03,8.649,2.192,8.62,6.984C130.29,330.905,127.159,332.983,121.89,332.953 M121.16,321.742l-4.293-0.032
		l-0.046,8.174l4.288,0.029c3.392,0.017,5.054-0.946,5.07-4.243C126.199,322.779,124.703,321.762,121.16,321.742"/>
	<path clip-path="url(#SVGID_5_)" fill="#6BCCE0" d="M144.85,327.475c-2.031-0.016-4.22,0.641-4.823,0.794l-0.105,16.042
		l-3.912-0.022l0.107-18.107c0.687-0.339,4.759-1.509,8.26-1.482c0.265,0,2.146,0.045,2.445,0.198l-0.01,2.771
		C146.43,327.589,145.307,327.475,144.85,327.475"/>
	<path clip-path="url(#SVGID_5_)" fill="#6BCCE0" d="M154.584,335.562c0.046,4.341,1.8,6.604,6.248,6.626
		c2.642,0.017,5.81-1.121,6.338-1.639l-0.01,2.924c-0.46,0.331-3.331,1.44-7.543,1.414c-6.891-0.046-8.981-3.625-8.941-10.597
		c0.035-6.221,3.333-9.537,8.833-9.508c5.382,0.039,8.684,3.509,8.641,9.618l-0.006,1.242L154.584,335.562z M159.499,327.413
		c-3.128-0.022-4.794,1.996-4.905,5.742l9.758,0.055C164.3,329.881,162.706,327.426,159.499,327.413"/>
	<path clip-path="url(#SVGID_5_)" fill="#6BCCE0" d="M179.874,344.968c-4.174-0.02-5.706-1.911-5.692-4.942l0.117-19.203
		l3.923,0.029l-0.036,4.496l5.091,0.036l-0.022,2.81l-5.078-0.033l-0.075,11.141c-0.006,1.833,0.999,2.852,2.89,2.864
		c0.448,0.007,1.989-0.286,2.597-0.472l-0.017,2.846C182.587,344.799,180.936,344.98,179.874,344.968"/>
	<path clip-path="url(#SVGID_5_)" fill="#6BCCE0" d="M197.73,345.117c-7.348-0.032-9.398-3.424-9.356-10.583
		c0.049-6.796,3.41-9.547,9.471-9.508c6.182,0.036,9.477,2.722,9.441,9.614C207.23,342.672,203.905,345.153,197.73,345.117
		 M197.832,327.836c-3.873-0.023-5.398,1.986-5.425,6.711c-0.039,5.7,1.45,7.771,5.343,7.797c3.72,0.026,5.435-2.179,5.467-7.726
		C203.246,329.93,201.669,327.868,197.832,327.836"/>
	<path clip-path="url(#SVGID_5_)" fill="#FFFFFF" d="M186.341,240.676c-0.191,8.582-4.592,16.168-11.209,20.698
		c-0.376,0.2-0.727,0.388-1.044,0.695c-2.555,1.712-4.832,3.815-6.754,6.223l0.01-0.045c0,0-1.359-5.742-1.97-7.626
		c-0.562-1.751-2.959-6.698-2.959-6.698c2.641-1.722,3.621-4.604,3.388-7.852c0.039,0,0.022-0.035,0-0.064
		c-0.02-0.601-0.091-1.225-0.228-1.874l-2.252-11.696c-0.162-0.847-0.983-1.399-1.85-1.247l-0.25,0.048
		c-0.841,0.169-1.432,0.999-1.266,1.836l1.837,9.813c0.169,0.84-0.432,1.667-1.289,1.825l-0.249,0.039
		c-0.844,0.168-1.682-0.381-1.814-1.24l-1.855-9.797c-0.153-0.834-1.023-1.409-1.867-1.247l-0.249,0.064
		c-0.863,0.161-1.432,0.988-1.263,1.825l1.84,9.797c0.156,0.856-0.383,1.69-1.253,1.852l-0.266,0.032
		c-0.824,0.165-1.612-0.316-1.781-1.099l-1.869-9.936c-0.172-0.859-0.987-1.405-1.866-1.247l-0.253,0.039
		c-0.863,0.164-1.408,0.985-1.243,1.825l1.95,10.252c0.033,0.484,0.081,0.999,0.182,1.474c0.772,4.035,2.876,7.153,6.571,7.948
		c0,0,2.671,4.081,4.664,11.535c1.596,5.887,1.213,13.416,0.989,16.117l-0.01,0.104c-0.045,0.384-0.071,0.801-0.123,1.201
		c-0.828,4.922-2.499,9.399-4.939,13.528c0-0.058,0.017-0.103,0.026-0.164c0.207-1.276,0.295-2.543,0.321-3.845
		c0.032-1.762-0.039-3.493-0.272-5.196c-1.052-8.614-5.189-16.291-11.293-21.849c-0.409-0.375-0.753-0.675-1.107-1.044
		c-1.706-1.563-3.187-3.34-4.481-5.24c0-0.039-0.067-0.039-0.059-0.087c-0.499-0.679-0.898-1.399-1.265-2.13
		c0,0,0-0.028-0.059-0.028c-2.651-4.656-4.069-10.056-3.952-15.739c0.041-1.797,0.239-3.509,0.567-5.173
		c0.461-2.708,1.343-5.219,2.512-7.58c0.282-0.676,0.59-1.315,1.009-1.958c0.957-1.654,2.122-3.267,3.385-4.766
		c0.399-0.501,0.889-1.005,1.409-1.5c4.743-4.578,11.321-7.331,18.477-7.179C175.313,214.601,186.64,226.439,186.341,240.676"/>
	<path clip-path="url(#SVGID_5_)" fill="#6BCCE0" d="M156.148,293.77c-0.026,1.302-0.114,2.568-0.322,3.845
		c-1.596,2.721-4.602,4.507-8.009,4.433c-5.02-0.1-8.995-4.22-8.892-9.192c0.033-1.131,0.267-2.188,0.646-3.16
		c0.219-0.416,0.433-0.827,0.627-1.25c1.717-3.693,2.703-7.816,2.804-12.204c0.098-4.568-0.775-8.914-2.531-12.805
		c-0.396-1.03-0.886-1.997-1.477-2.995c1.295,1.899,2.775,3.677,4.482,5.241c0.354,0.368,0.697,0.668,1.106,1.043
		c6.104,5.559,10.241,13.234,11.293,21.849C156.109,290.276,156.181,292.008,156.148,293.77"/>
</g>
</svg>
