<?xml version="1.0" encoding="utf-8"?>
<!-- Generator: Adobe Illustrator 16.0.0, SVG Export Plug-In . SVG Version: 6.00 Build 0)  -->
<!DOCTYPE svg PUBLIC "-//W3C//DTD SVG 1.1//EN" "http://www.w3.org/Graphics/SVG/1.1/DTD/svg11.dtd">
<svg version="1.1" id="Layer_1" xmlns="http://www.w3.org/2000/svg" xmlns:xlink="http://www.w3.org/1999/xlink" x="0px" y="0px"
	 width="71.68px" height="71.531px" viewBox="0 0 71.68 71.531" enable-background="new 0 0 71.68 71.531" xml:space="preserve">
<path fill="#FFFFFF" d="M67.929,35.766c0-17.685-14.366-32.021-32.087-32.021c-17.722,0-32.088,14.337-32.088,32.021
	S18.12,67.787,35.842,67.787C53.563,67.787,67.929,53.45,67.929,35.766"/>
<path fill="#6BCCE0" d="M35.841,71.531C16.078,71.531,0,55.486,0,35.766C0,16.044,16.078,0,35.841,0
	C55.603,0,71.68,16.044,71.68,35.766C71.68,55.486,55.603,71.531,35.841,71.531 M35.841,0.888C16.568,0.888,0.89,16.533,0.89,35.766
	c0,19.231,15.679,34.878,34.951,34.878c19.271,0,34.95-15.646,34.95-34.878C70.791,16.533,55.112,0.888,35.841,0.888"/>
<path fill="#2A3487" d="M40.444,33.951c0.063,0.021,0.126,0.031,0.188,0.031c0.244,0,0.472-0.153,0.555-0.396
	c0.183-0.536,0.769-0.824,1.307-0.643c1.148,0.388,2.402-0.228,2.792-1.375c0.104-0.305-0.06-0.637-0.366-0.741
	c-0.308-0.104-0.639,0.061-0.743,0.366c-0.183,0.537-0.769,0.824-1.307,0.643c-1.147-0.387-2.402,0.228-2.792,1.374
	C39.975,33.516,40.139,33.848,40.444,33.951"/>
<path fill="#2A3487" d="M41.83,29.88c0.062,0.021,0.126,0.031,0.188,0.031c0.244,0,0.472-0.153,0.555-0.397
	c0.089-0.26,0.273-0.47,0.521-0.592c0.247-0.121,0.526-0.139,0.787-0.051c1.148,0.389,2.401-0.228,2.792-1.375
	c0.104-0.305-0.061-0.638-0.366-0.741c-0.307-0.105-0.639,0.061-0.743,0.365c-0.183,0.538-0.768,0.826-1.307,0.645
	c-0.558-0.189-1.154-0.151-1.681,0.109c-0.527,0.26-0.922,0.709-1.111,1.265C41.359,29.444,41.523,29.776,41.83,29.88"/>
<path fill="#2A3487" d="M43.214,25.809c0.063,0.021,0.126,0.03,0.188,0.03c0.245,0,0.473-0.153,0.555-0.396
	c0.135-0.396,0.569-0.609,0.965-0.476c0.489,0.166,1.014,0.132,1.477-0.096s0.809-0.621,0.975-1.109
	c0.104-0.305-0.06-0.638-0.365-0.741c-0.308-0.104-0.64,0.06-0.743,0.365c-0.065,0.192-0.202,0.348-0.385,0.438
	c-0.182,0.09-0.388,0.103-0.581,0.036c-1.009-0.339-2.108,0.201-2.45,1.207C42.745,25.372,42.908,25.704,43.214,25.809"/>
<path fill="#2A3487" d="M47.456,33.908c-0.102-0.069-0.217-0.108-0.334-0.124c1.164-3.773,1.802-7.47,1.894-10.99
	c0.028-1.107-0.514-2.586-1.606-3.271c-0.525-0.329-1.385-0.6-2.501-0.027c-1.749,0.901-3,3.55-4.005,5.68
	c-0.058,0.122-0.114,0.242-0.171,0.36c-0.222-1.019-0.896-1.89-1.855-2.344c-0.226-1.085-1.088-1.935-2.171-2.155
	c-0.012-0.061-0.026-0.12-0.045-0.18c-0.224-0.761-0.896-1.334-1.674-1.426c-0.438-0.053-0.873,0.038-1.244,0.255
	c-0.316-0.176-0.671-0.27-1.035-0.27c-1.019,0-1.874,0.709-2.098,1.657c-1.113,0.303-1.929,1.322-1.938,2.508
	c-1.27,0.327-2.195,1.473-2.195,2.835c0,0.36,0.068,0.719,0.199,1.056c-0.329,0.405-0.513,0.914-0.513,1.448
	c0,0.32,0.066,0.628,0.191,0.913c-0.585-0.637-1.409-1.157-2.333-1.123c-0.323,0.011-0.577,0.279-0.567,0.603
	c0.01,0.315,0.27,0.565,0.585,0.565c0.021,0.001,0.038-0.001,0.057-0.001c0.549,0,1.059,0.362,1.43,0.783
	c-0.929,0.268-2.048,0.702-2.57,1.685c-0.314,0.594-0.352,1.321-0.142,2.154c-0.102,0.169-0.157,0.365-0.146,0.574l0.996,14.134
	c0.092,1.772,1.555,3.16,3.333,3.16h16.438c1.777,0,3.241-1.388,3.332-3.149l1.021-14.625c0-0.004,0.001-0.008,0.001-0.011
	C47.804,34.313,47.68,34.062,47.456,33.908 M41.211,27.208c0.231-0.432,0.484-0.968,0.752-1.535c0.88-1.865,2.087-4.419,3.481-5.138
	c0.51-0.262,0.948-0.268,1.342-0.022c0.679,0.426,1.078,1.499,1.059,2.25c-0.09,3.455-0.722,7.091-1.88,10.808
	c-0.038,0.122-0.123,0.368-0.243,0.707l-0.998,0.442c-0.021,0.01-0.042,0.021-0.063,0.033c-0.288,0.172-0.611,0.258-0.935,0.261
	c-0.323-0.003-0.646-0.089-0.934-0.261l-0.418-0.25c-0.48-0.288-1.019-0.432-1.557-0.432c-0.006,0-0.013,0.001-0.02,0.001
	c-0.545-0.003-1.091,0.139-1.576,0.431l-0.417,0.25c-0.232,0.139-0.49,0.207-0.75,0.236c0.015-0.052,0.032-0.101,0.047-0.151
	c0.16-0.544,0.333-1.08,0.514-1.612c0.068-0.202,0.14-0.403,0.211-0.604c0.15-0.423,0.309-0.84,0.471-1.254
	c0.073-0.186,0.144-0.373,0.219-0.557C40.027,29.569,40.591,28.363,41.211,27.208 M33.746,28.594
	c0.068-0.088,0.135-0.173,0.198-0.256c0-0.001,0.001-0.002,0.001-0.003c0.047-0.062,0.087-0.125,0.121-0.188
	c0.144-0.271,0.178-0.574,0.11-0.871l2.444-0.533c0.017,0.074,0.034,0.148,0.063,0.218c0.109,0.268,0.305,0.49,0.577,0.646
	c0.089,0.05,0.183,0.099,0.278,0.149c0.079,0.041,0.158,0.085,0.237,0.128c0.039,0.021,0.077,0.041,0.115,0.062
	c0.069,0.039,0.137,0.083,0.205,0.125c0.058,0.036,0.115,0.073,0.171,0.111c0.065,0.046,0.128,0.096,0.189,0.146
	c0.055,0.044,0.106,0.093,0.158,0.143c0.056,0.055,0.111,0.109,0.162,0.171c0.09,0.107,0.176,0.219,0.247,0.353
	c-0.248,0.547-0.481,1.104-0.708,1.668c-0.035,0.087-0.072,0.172-0.106,0.259c-0.643,0.162-1.263,0.467-2.028,1.011
	c-0.965,0.684-1.684,0.865-2.867,0.694L32.959,31C32.718,29.902,33.24,29.237,33.746,28.594 M36.649,25.045
	c0.016-0.003,0.03-0.005,0.046-0.005c0.11,0,0.214,0.079,0.238,0.19c0.019,0.084-0.013,0.15-0.034,0.183
	c-0.021,0.031-0.066,0.087-0.15,0.104l-3.234,0.707c-0.129,0.027-0.26-0.058-0.288-0.185c-0.028-0.128,0.057-0.26,0.185-0.288
	l1.719-0.375L36.649,25.045z M34.757,34.083c-0.045,0.003-0.09,0.004-0.134,0.009c-0.319,0.032-0.634,0.113-0.934,0.247
	l-0.111-0.511c0.168,0.014,0.336,0.027,0.494,0.027c1.021,0,1.843-0.303,2.788-0.974c0.297-0.212,0.561-0.372,0.812-0.505
	c-0.054,0.153-0.106,0.305-0.159,0.458c-0.038,0.109-0.078,0.218-0.114,0.328c-0.172,0.521-0.336,1.045-0.489,1.573l-0.389-0.232
	c-0.48-0.287-1.019-0.432-1.557-0.432c-0.008,0-0.015,0.002-0.021,0.002C34.88,34.072,34.818,34.08,34.757,34.083 M27.753,28.04
	l0.384-0.315l-0.249-0.428c-0.156-0.27-0.238-0.573-0.238-0.88c0-0.947,0.743-1.719,1.691-1.759l0.711-0.029l-0.166-0.691
	c-0.027-0.115-0.042-0.229-0.042-0.338c0-0.752,0.59-1.387,1.341-1.443l0.542-0.041v-0.581c0.017-0.525,0.45-0.948,0.981-0.948
	c0.306,0,0.525,0.139,0.654,0.256l0.41,0.37l0.394-0.389c0.181-0.177,0.428-0.26,0.684-0.231c0.313,0.037,0.598,0.281,0.688,0.596
	c0.031,0.104,0.04,0.206,0.027,0.31l-0.068,0.653h0.659c0.842,0,1.546,0.656,1.604,1.494l0.026,0.384l0.363,0.127
	c0.916,0.321,1.518,1.186,1.497,2.152c-0.009,0.413-0.143,0.812-0.384,1.16c-0.393-0.332-0.814-0.556-1.169-0.742
	c-0.092-0.049-0.181-0.096-0.271-0.145c-0.025-0.015-0.056-0.039-0.066-0.101c-0.014-0.084,0.018-0.185,0.082-0.259
	c0.255-0.296,0.357-0.699,0.274-1.08l-0.07-0.321c-0.071-0.325-0.266-0.603-0.547-0.782c-0.28-0.18-0.614-0.24-0.938-0.169
	L36.4,23.903c-0.002,0.001-0.004,0-0.006,0.001l-1.719,0.375l-1.677,0.365c-0.325,0.071-0.604,0.265-0.783,0.545
	c-0.181,0.28-0.24,0.614-0.169,0.938l0.034,0.159v0.001c0,0.001,0.001,0.001,0.001,0.003l0.035,0.158
	c0.084,0.389,0.355,0.717,0.724,0.875c0.092,0.039,0.167,0.113,0.194,0.188c0.015,0.043,0.006,0.065-0.027,0.122l0,0
	c-0.059,0.078-0.121,0.156-0.185,0.238c-0.064,0.081-0.132,0.167-0.199,0.256c-0.023,0.03-0.045,0.062-0.067,0.092
	c-0.049,0.065-0.098,0.133-0.146,0.203c-0.026,0.038-0.052,0.077-0.077,0.117c-0.045,0.068-0.087,0.139-0.13,0.211
	c-0.024,0.042-0.048,0.084-0.071,0.128c-0.044,0.081-0.084,0.167-0.123,0.255c-0.018,0.037-0.035,0.073-0.051,0.112
	c-0.052,0.128-0.097,0.261-0.134,0.4c-0.005,0.022-0.008,0.047-0.013,0.069c-0.028,0.119-0.052,0.242-0.065,0.371
	c-0.006,0.052-0.008,0.105-0.011,0.158c-0.005,0.069-0.014,0.135-0.014,0.206c-0.002-0.003-0.005-0.006-0.007-0.009
	c-0.009-0.01-0.017-0.02-0.024-0.03c-0.102-0.134-0.204-0.257-0.306-0.373c-0.032-0.037-0.065-0.073-0.099-0.108
	c-0.086-0.093-0.172-0.18-0.259-0.262c-0.027-0.026-0.056-0.055-0.085-0.08c-0.109-0.098-0.22-0.188-0.33-0.267
	c-0.03-0.022-0.063-0.041-0.094-0.062c-0.083-0.056-0.166-0.107-0.25-0.153c-0.041-0.022-0.082-0.044-0.123-0.063
	c-0.087-0.042-0.175-0.079-0.264-0.11c-0.029-0.011-0.059-0.024-0.088-0.034c-0.096-0.03-0.192-0.055-0.29-0.073
	c-0.011-0.002-0.022-0.001-0.033-0.003c-0.02-0.003-0.039-0.011-0.06-0.014c-0.067-0.01-0.132-0.006-0.198-0.011
	c-0.047-0.003-0.094-0.013-0.141-0.013c-0.014,0-0.028,0.004-0.043,0.004c-0.091,0.001-0.179,0.012-0.267,0.022
	c-0.044,0.006-0.089,0.01-0.132,0.018c-0.115,0.021-0.228,0.051-0.338,0.085c-0.018,0.006-0.033,0.01-0.051,0.016
	c-0.291,0.099-0.568,0.238-0.827,0.407c-0.053-0.132-0.081-0.272-0.081-0.418C27.336,28.578,27.487,28.258,27.753,28.04
	 M23.991,32.893c0.247-0.466,0.849-0.821,1.893-1.119c0.488-0.14,0.941-0.399,1.31-0.75c0.167-0.159,0.323-0.294,0.475-0.417
	c0.472-0.383,0.879-0.591,1.247-0.638c0.008-0.002,0.017-0.003,0.024-0.003c0.116-0.014,0.229-0.01,0.339,0.009
	c0.029,0.006,0.058,0.016,0.087,0.023c0.055,0.014,0.108,0.026,0.163,0.048c0.035,0.014,0.07,0.034,0.106,0.051
	c0.051,0.024,0.101,0.047,0.151,0.078c0.041,0.023,0.08,0.055,0.12,0.082c0.047,0.033,0.095,0.063,0.144,0.103
	c0.044,0.035,0.088,0.079,0.133,0.119c0.044,0.04,0.089,0.077,0.134,0.122c0.049,0.05,0.099,0.107,0.148,0.163
	c0.04,0.045,0.081,0.086,0.122,0.135c0.056,0.066,0.111,0.143,0.168,0.216c0.036,0.047,0.07,0.09,0.106,0.139
	c0.063,0.089,0.128,0.188,0.192,0.286c0.028,0.043,0.058,0.082,0.085,0.126c0.094,0.146,0.187,0.303,0.281,0.469
	c0.432,0.759,0.574,1.88,0.387,2.856c-0.031-0.003-0.062-0.007-0.093-0.012c-0.223-0.038-0.438-0.109-0.634-0.227l-0.417-0.25
	c-0.48-0.287-1.019-0.431-1.557-0.431c-0.007,0-0.013,0.001-0.02,0.001c-0.545-0.004-1.091,0.139-1.576,0.43l-0.203,0.122
	c-0.354,0.212-0.752,0.318-1.148,0.322c-0.398-0.004-0.795-0.109-1.148-0.322l-0.788-0.473l0,0
	c-0.104-0.062-0.216-0.104-0.331-0.125C23.8,33.564,23.833,33.19,23.991,32.893 M45.599,49.147c-0.06,1.15-1.01,2.051-2.163,2.051
	H26.998c-1.154,0-2.104-0.9-2.164-2.062l-0.975-13.815l0.51,0.305c0.552,0.331,1.173,0.493,1.791,0.49
	c0.618,0.003,1.238-0.159,1.79-0.49l0.203-0.121c0.288-0.173,0.611-0.259,0.935-0.262c0.323,0.003,0.646,0.089,0.935,0.262
	l0.417,0.25c0.528,0.316,1.127,0.452,1.718,0.42c0.054-0.003,0.105-0.003,0.159-0.007c0.007-0.001,0.012-0.004,0.02-0.005
	c0.399-0.045,0.792-0.171,1.153-0.376c0.034-0.013,0.07-0.014,0.103-0.032l0.418-0.25c0.287-0.173,0.61-0.259,0.934-0.262
	c0.323,0.003,0.646,0.089,0.935,0.262l0.417,0.25c0.443,0.265,0.937,0.402,1.433,0.423c0.01,0,0.021,0.002,0.03,0.002
	c0.171,0.005,0.342,0,0.512-0.024c0.098-0.013,0.191-0.037,0.287-0.059c0.047-0.011,0.093-0.021,0.139-0.034
	c0.26-0.072,0.515-0.166,0.751-0.309l0.418-0.25c0.288-0.173,0.61-0.258,0.934-0.261c0.324,0.003,0.646,0.088,0.935,0.261
	l0.418,0.25c0.483,0.29,1.026,0.432,1.568,0.43c0.009,0,0.019,0.002,0.027,0.002c0.525,0,1.052-0.138,1.524-0.412l1.148-0.51
	c0.024-0.011,0.042-0.031,0.065-0.046l0.089-0.039L45.599,49.147z"/>
<path fill="#2A3487" d="M26.18,44.292h4.099c0.323,0,0.586-0.261,0.586-0.584s-0.263-0.584-0.586-0.584H26.18
	c-0.323,0-0.586,0.261-0.586,0.584S25.856,44.292,26.18,44.292"/>
<path fill="#2A3487" d="M26.18,46.63h5.271c0.323,0,0.585-0.262,0.585-0.584c0-0.323-0.262-0.585-0.585-0.585H26.18
	c-0.323,0-0.586,0.262-0.586,0.585C25.594,46.368,25.856,46.63,26.18,46.63"/>
<path fill="#2A3487" d="M32.621,47.799H26.18c-0.323,0-0.586,0.261-0.586,0.584s0.263,0.584,0.586,0.584h6.441
	c0.323,0,0.585-0.261,0.585-0.584S32.944,47.799,32.621,47.799"/>
<path fill="#2A3487" d="M36.134,47.799h-1.171c-0.323,0-0.585,0.261-0.585,0.584s0.262,0.584,0.585,0.584h1.171
	c0.324,0,0.586-0.261,0.586-0.584S36.458,47.799,36.134,47.799"/>
</svg>
