<?xml version="1.0" encoding="utf-8"?>
<!-- Generator: Adobe Illustrator 16.0.0, SVG Export Plug-In . SVG Version: 6.00 Build 0)  -->
<!DOCTYPE svg PUBLIC "-//W3C//DTD SVG 1.1//EN" "http://www.w3.org/Graphics/SVG/1.1/DTD/svg11.dtd">
<svg version="1.1" id="Layer_1" xmlns="http://www.w3.org/2000/svg" xmlns:xlink="http://www.w3.org/1999/xlink" x="0px" y="0px"
	 width="31.064px" height="31.078px" viewBox="0 0 31.064 31.078" enable-background="new 0 0 31.064 31.078" xml:space="preserve">
<path fill="#2A3487" d="M31.064,15.539C31.064,6.958,24.11,0,15.533,0C6.955,0,0,6.958,0,15.539s6.955,15.539,15.533,15.539
	C24.11,31.078,31.064,24.12,31.064,15.539"/>
<path fill="#6BCCE0" d="M23.438,17.126c0.354-0.452,0.524-0.937,0.503-1.437c-0.022-0.55-0.267-0.981-0.47-1.245
	c0.235-0.587,0.325-1.511-0.46-2.228c-0.575-0.523-1.554-0.76-2.906-0.694c-0.951,0.043-1.747,0.221-1.78,0.229h-0.004
	c-0.182,0.032-0.372,0.072-0.567,0.115c-0.015-0.232,0.025-0.808,0.451-2.104c0.507-1.542,0.478-2.723-0.094-3.511
	c-0.601-0.83-1.559-0.896-1.841-0.896c-0.271,0-0.522,0.113-0.699,0.319c-0.401,0.467-0.354,1.328-0.304,1.727
	c-0.477,1.282-1.817,4.425-2.949,5.296c-0.021,0.015-0.04,0.033-0.058,0.052c-0.333,0.351-0.558,0.73-0.709,1.064
	c-0.213-0.116-0.456-0.181-0.717-0.181H8.627c-0.833,0-1.506,0.677-1.506,1.506v5.882c0,0.833,0.677,1.507,1.506,1.507h2.206
	c0.323,0,0.624-0.102,0.869-0.275l0.851,0.103c0.131,0.018,2.447,0.311,4.824,0.264c0.432,0.032,0.836,0.05,1.212,0.05
	c0.648,0,1.214-0.05,1.684-0.151c1.106-0.236,1.863-0.706,2.247-1.396c0.293-0.529,0.293-1.055,0.247-1.389
	c0.719-0.65,0.847-1.372,0.82-1.879C23.573,17.562,23.508,17.311,23.438,17.126 M8.627,21.55c-0.294,0-0.529-0.238-0.529-0.528
	v-5.886c0-0.294,0.239-0.529,0.529-0.529h2.206c0.294,0,0.529,0.24,0.529,0.529v5.883c0,0.293-0.238,0.528-0.529,0.528H8.627V21.55z
	 M22.512,16.703c-0.151,0.159-0.181,0.401-0.063,0.589c0,0.005,0.146,0.258,0.165,0.605c0.026,0.475-0.202,0.896-0.681,1.252
	c-0.169,0.132-0.238,0.355-0.166,0.559c0,0.003,0.156,0.481-0.097,0.934c-0.244,0.435-0.781,0.746-1.601,0.92
	c-0.654,0.142-1.545,0.167-2.638,0.079h-0.051c-2.327,0.051-4.679-0.253-4.705-0.257h-0.003l-0.365-0.044
	c0.021-0.1,0.032-0.209,0.032-0.318v-5.886c0-0.155-0.026-0.308-0.069-0.449c0.065-0.242,0.246-0.782,0.673-1.242
	c1.625-1.288,3.214-5.637,3.283-5.825c0.028-0.075,0.036-0.158,0.021-0.241c-0.062-0.406-0.039-0.902,0.047-1.051
	c0.191,0.004,0.709,0.058,1.021,0.489c0.368,0.51,0.354,1.423-0.044,2.632c-0.608,1.843-0.658,2.813-0.178,3.24
	c0.239,0.212,0.558,0.224,0.789,0.141c0.221-0.051,0.43-0.095,0.63-0.127c0.014-0.004,0.033-0.007,0.047-0.011
	c1.111-0.242,3.102-0.391,3.792,0.24c0.587,0.534,0.171,1.244,0.123,1.32c-0.133,0.203-0.093,0.467,0.088,0.631
	c0.003,0.003,0.384,0.361,0.401,0.843C22.979,16.049,22.827,16.377,22.512,16.703"/>
</svg>
