<?xml version="1.0" encoding="utf-8"?>
<!-- Generator: Adobe Illustrator 16.0.0, SVG Export Plug-In . SVG Version: 6.00 Build 0)  -->
<!DOCTYPE svg PUBLIC "-//W3C//DTD SVG 1.1//EN" "http://www.w3.org/Graphics/SVG/1.1/DTD/svg11.dtd">
<svg version="1.1" id="Layer_1" xmlns="http://www.w3.org/2000/svg" xmlns:xlink="http://www.w3.org/1999/xlink" x="0px" y="0px"
	 width="35.667px" height="35.631px" viewBox="0 0 35.667 35.631" enable-background="new 0 0 35.667 35.631" xml:space="preserve">
<path fill="#2A3487" d="M35.667,17.815C35.667,7.977,27.682,0,17.834,0C7.985,0,0,7.977,0,17.815c0,9.84,7.985,17.815,17.834,17.815
	C27.682,35.631,35.667,27.655,35.667,17.815"/>
<path fill="#FFFFFF" d="M26.911,19.636c0.407-0.519,0.603-1.075,0.578-1.647c-0.025-0.631-0.308-1.125-0.54-1.428
	c0.271-0.673,0.373-1.731-0.528-2.553c-0.66-0.602-1.782-0.872-3.336-0.797c-1.093,0.05-2.008,0.252-2.044,0.262h-0.005
	c-0.208,0.037-0.428,0.083-0.651,0.133c-0.018-0.267,0.028-0.926,0.518-2.412c0.582-1.768,0.549-3.121-0.106-4.026
	c-0.69-0.951-1.792-1.025-2.115-1.025c-0.312,0-0.599,0.129-0.803,0.365c-0.461,0.536-0.407,1.523-0.349,1.979
	c-0.548,1.471-2.086,5.073-3.386,6.073c-0.025,0.017-0.046,0.037-0.067,0.059c-0.383,0.402-0.641,0.838-0.814,1.22
	c-0.244-0.133-0.522-0.207-0.823-0.207H9.905c-0.956,0-1.729,0.776-1.729,1.727v6.745c0,0.955,0.777,1.727,1.729,1.727h2.533
	c0.371,0,0.716-0.116,0.997-0.314l0.978,0.115c0.149,0.021,2.809,0.357,5.538,0.304c0.495,0.037,0.961,0.057,1.393,0.057
	c0.743,0,1.393-0.057,1.933-0.173c1.271-0.271,2.138-0.811,2.58-1.603c0.336-0.606,0.336-1.208,0.282-1.59
	c0.826-0.747,0.974-1.573,0.943-2.154C27.065,20.134,26.991,19.848,26.911,19.636 M9.905,24.708c-0.337,0-0.606-0.274-0.606-0.605
	v-6.749c0-0.337,0.274-0.606,0.606-0.606h2.533c0.338,0,0.607,0.274,0.607,0.606v6.745c0,0.335-0.273,0.605-0.607,0.605H9.905
	V24.708z M25.848,19.15c-0.174,0.183-0.208,0.461-0.073,0.677c0,0.004,0.169,0.295,0.189,0.693c0.03,0.543-0.232,1.025-0.78,1.436
	c-0.195,0.15-0.274,0.407-0.191,0.64c0,0.004,0.179,0.553-0.112,1.07c-0.278,0.499-0.897,0.855-1.837,1.056
	c-0.752,0.161-1.774,0.19-3.028,0.091h-0.059c-2.672,0.059-5.372-0.291-5.401-0.295h-0.004l-0.42-0.05
	c0.025-0.115,0.037-0.241,0.037-0.365v-6.749c0-0.179-0.029-0.353-0.079-0.516c0.075-0.277,0.283-0.896,0.773-1.424
	c1.865-1.477,3.689-6.462,3.769-6.678c0.033-0.088,0.042-0.183,0.024-0.278c-0.07-0.465-0.045-1.033,0.055-1.204
	c0.22,0.005,0.814,0.066,1.172,0.562c0.423,0.584,0.407,1.631-0.05,3.017c-0.699,2.112-0.757,3.226-0.204,3.716
	c0.274,0.244,0.64,0.257,0.905,0.161c0.254-0.058,0.494-0.108,0.723-0.146c0.017-0.004,0.038-0.008,0.055-0.012
	c1.275-0.278,3.562-0.448,4.354,0.274c0.673,0.613,0.196,1.427,0.142,1.514c-0.154,0.232-0.108,0.536,0.101,0.723
	c0.003,0.004,0.439,0.415,0.46,0.968C26.383,18.399,26.209,18.777,25.848,19.15"/>
</svg>
