<?xml version="1.0" encoding="utf-8"?>
<!-- Generator: Adobe Illustrator 16.0.0, SVG Export Plug-In . SVG Version: 6.00 Build 0)  -->
<!DOCTYPE svg PUBLIC "-//W3C//DTD SVG 1.1//EN" "http://www.w3.org/Graphics/SVG/1.1/DTD/svg11.dtd">
<svg version="1.1" id="Layer_1" xmlns="http://www.w3.org/2000/svg" xmlns:xlink="http://www.w3.org/1999/xlink" x="0px" y="0px"
	 width="69.646px" height="69.612px" viewBox="0 0 69.646 69.612" enable-background="new 0 0 69.646 69.612" xml:space="preserve">
<g>
	<defs>
		<rect id="SVGID_1_" x="-125.187" y="-32.093" width="320" height="568.889"/>
	</defs>
	<clipPath id="SVGID_2_">
		<use xlink:href="#SVGID_1_"  display="none" overflow="visible"/>
	</clipPath>
	<path clip-path="url(#SVGID_2_)" fill="#FFFFFF" d="M69.646,34.805C69.646,15.614,54.024,0,34.823,0C15.622,0,0,15.614,0,34.805
		c0,10.137,4.361,19.274,11.303,25.641l-0.033,0.028l1.13,0.953c0.073,0.062,0.153,0.112,0.226,0.174
		c0.6,0.496,1.222,0.969,1.855,1.426c0.205,0.148,0.41,0.296,0.619,0.44c0.676,0.466,1.37,0.908,2.079,1.327
		c0.155,0.09,0.311,0.179,0.466,0.269c0.776,0.44,1.569,0.857,2.381,1.239c0.06,0.027,0.121,0.053,0.18,0.081
		c2.645,1.229,5.469,2.132,8.422,2.664c0.078,0.014,0.154,0.028,0.233,0.042c0.917,0.158,1.844,0.284,2.782,0.369
		c0.114,0.011,0.228,0.016,0.343,0.027c0.935,0.077,1.879,0.127,2.836,0.127c0.948,0,1.884-0.05,2.814-0.124
		c0.118-0.011,0.236-0.017,0.353-0.028c0.931-0.084,1.851-0.207,2.759-0.362c0.078-0.014,0.158-0.027,0.237-0.043
		c2.908-0.521,5.69-1.403,8.303-2.602c0.096-0.044,0.193-0.086,0.289-0.131c0.781-0.366,1.546-0.764,2.294-1.185
		c0.187-0.105,0.371-0.212,0.556-0.321c0.682-0.4,1.351-0.819,2.003-1.265c0.233-0.16,0.463-0.328,0.695-0.495
		c0.556-0.399,1.101-0.813,1.632-1.244c0.117-0.096,0.244-0.178,0.359-0.274l1.159-0.967l-0.034-0.03
		C65.244,54.173,69.646,44.994,69.646,34.805 M2.532,34.805c0-17.796,14.486-32.273,32.291-32.273
		c17.806,0,32.291,14.478,32.291,32.273c0,9.591-4.211,18.212-10.876,24.129c-0.371-0.257-0.746-0.487-1.131-0.681l-10.723-5.357
		c-0.961-0.48-1.56-1.448-1.56-2.522V46.63c0.249-0.305,0.512-0.652,0.782-1.033c1.387-1.959,2.5-4.139,3.313-6.483
		c1.604-0.763,2.64-2.36,2.64-4.163v-4.487c0-1.098-0.402-2.162-1.123-2.998v-5.907c0.065-0.656,0.298-4.363-2.385-7.422
		c-2.333-2.663-6.111-4.011-11.228-4.011c-5.117,0-8.895,1.348-11.229,4.01c-2.684,3.058-2.45,6.766-2.384,7.422v5.906
		c-0.719,0.838-1.123,1.901-1.123,2.998v4.487c0,1.394,0.625,2.693,1.697,3.571c1.025,4.015,3.136,7.056,3.917,8.087v3.662
		c0,1.032-0.563,1.982-1.471,2.478l-10.013,5.46c-0.319,0.173-0.636,0.375-0.953,0.602C6.681,52.895,2.532,44.326,2.532,34.805
		 M53.767,60.919c-0.445,0.321-0.896,0.633-1.353,0.93c-0.21,0.137-0.419,0.273-0.633,0.406c-0.599,0.37-1.206,0.722-1.826,1.052
		c-0.137,0.071-0.274,0.14-0.413,0.21c-1.425,0.73-2.9,1.359-4.417,1.869c-0.054,0.018-0.106,0.036-0.16,0.054
		c-0.794,0.264-1.598,0.498-2.411,0.699c-0.003,0-0.005,0.001-0.008,0.001c-0.82,0.202-1.651,0.371-2.487,0.509
		c-0.021,0.004-0.045,0.009-0.067,0.013c-0.787,0.128-1.579,0.221-2.375,0.29c-0.141,0.013-0.28,0.021-0.423,0.032
		c-0.786,0.059-1.577,0.098-2.371,0.098c-0.803,0-1.603-0.04-2.4-0.1c-0.138-0.01-0.276-0.019-0.413-0.031
		c-0.803-0.071-1.602-0.166-2.394-0.296c-0.035-0.006-0.07-0.013-0.106-0.019c-1.673-0.279-3.321-0.69-4.926-1.229
		c-0.049-0.017-0.1-0.035-0.149-0.051c-0.796-0.271-1.584-0.571-2.357-0.902c-0.005-0.003-0.012-0.006-0.017-0.008
		c-0.732-0.314-1.449-0.664-2.159-1.032c-0.092-0.049-0.186-0.094-0.277-0.144c-0.647-0.345-1.28-0.719-1.905-1.109
		c-0.185-0.115-0.368-0.233-0.551-0.353c-0.575-0.376-1.143-0.768-1.694-1.181c-0.057-0.043-0.111-0.089-0.168-0.132
		c0.041-0.023,0.082-0.045,0.122-0.068l10.013-5.458c1.722-0.94,2.792-2.741,2.792-4.701l-0.001-4.56l-0.291-0.352
		c-0.028-0.031-2.766-3.36-3.8-7.867l-0.115-0.501l-0.432-0.28c-0.609-0.394-0.974-1.052-0.974-1.762V30.46
		c0-0.588,0.25-1.137,0.706-1.547l0.418-0.378v-7.05l-0.011-0.165c-0.004-0.031-0.378-3.075,1.768-5.519
		c1.831-2.086,4.969-3.146,9.324-3.146c4.338,0,7.466,1.051,9.302,3.121c2.143,2.419,1.792,5.52,1.789,5.545l-0.012,7.216
		l0.418,0.377c0.455,0.41,0.706,0.96,0.706,1.548v4.487c0,0.902-0.614,1.721-1.496,1.992l-0.63,0.195L44.7,37.764
		c-0.748,2.319-1.812,4.463-3.161,6.369c-0.332,0.468-0.655,0.883-0.932,1.2l-0.314,0.358v4.682c0,2.041,1.134,3.875,2.96,4.787
		l10.723,5.358c0.068,0.033,0.136,0.069,0.202,0.104C54.042,60.726,53.903,60.82,53.767,60.919"/>
</g>
</svg>
