<?xml version="1.0" encoding="utf-8"?>
<!-- Generator: Adobe Illustrator 16.0.0, SVG Export Plug-In . SVG Version: 6.00 Build 0)  -->
<!DOCTYPE svg PUBLIC "-//W3C//DTD SVG 1.1//EN" "http://www.w3.org/Graphics/SVG/1.1/DTD/svg11.dtd">
<svg version="1.1" id="Layer_1" xmlns="http://www.w3.org/2000/svg" xmlns:xlink="http://www.w3.org/1999/xlink" x="0px" y="0px"
	 width="3.962px" height="22.349px" viewBox="0 0 3.962 22.349" enable-background="new 0 0 3.962 22.349" xml:space="preserve">
<path fill="#2A3487" d="M1.98,22.349c-1.094,0-1.98-0.885-1.98-1.978"/>
<path fill="#2A3487" d="M0,20.371c0-1.092,0.887-1.977,1.98-1.977c1.095,0,1.981,0.885,1.981,1.977c0,1.093-0.887,1.978-1.981,1.978
	"/>
<path fill="#2A3487" d="M0,11.174c0-1.092,0.887-1.977,1.98-1.977c1.095,0,1.981,0.885,1.981,1.977c0,1.091-0.887,1.977-1.981,1.977
	C0.887,13.151,0,12.266,0,11.174"/>
<path fill="#2A3487" d="M0,1.977C0,0.885,0.887,0,1.98,0c1.095,0,1.981,0.885,1.981,1.977S3.075,3.954,1.98,3.954
	C0.887,3.954,0,3.069,0,1.977"/>
</svg>
