<?xml version="1.0" encoding="utf-8"?>
<!-- Generator: Adobe Illustrator 16.0.0, SVG Export Plug-In . SVG Version: 6.00 Build 0)  -->
<!DOCTYPE svg PUBLIC "-//W3C//DTD SVG 1.1//EN" "http://www.w3.org/Graphics/SVG/1.1/DTD/svg11.dtd">
<svg version="1.1" id="Layer_1" xmlns="http://www.w3.org/2000/svg" xmlns:xlink="http://www.w3.org/1999/xlink" x="0px" y="0px"
	 width="33.765px" height="27.807px" viewBox="0 0 33.765 27.807" enable-background="new 0 0 33.765 27.807" xml:space="preserve">
<g>
	<defs>
		<polyline id="SVGID_1_" points="-42.804,-418.547 277.196,-418.547 277.196,149.453 -42.804,149.453 		"/>
	</defs>
	<clipPath id="SVGID_2_">
		<use xlink:href="#SVGID_1_"  display="none" overflow="visible"/>
	</clipPath>
	<path clip-path="url(#SVGID_2_)" fill-rule="evenodd" clip-rule="evenodd" fill="#2A3487" d="M20.507,0
		c0.543,0.07,1.089,0.121,1.628,0.214c3.104,0.532,5.834,1.832,8.075,4.062c1.986,1.977,3.217,4.351,3.495,7.161
		c0.284,2.874-0.468,5.474-2.191,7.79c-0.8,1.076-1.771,1.979-2.866,2.748c-0.183,0.128-0.22,0.23-0.157,0.449
		c0.452,1.56,0.266,3.015-0.782,4.3c-0.443,0.543-1.012,0.905-1.711,1.04c-0.023,0.005-0.042,0.028-0.063,0.043h-0.852
		c-0.299-0.104-0.619-0.171-0.893-0.322c-1.138-0.627-1.684-1.658-1.888-2.896c-0.039-0.237-0.106-0.299-0.35-0.274
		c-0.669,0.068-1.342,0.132-2.014,0.142c-0.841,0.014-1.684-0.025-2.525-0.048c-0.15-0.005-0.239,0.01-0.272,0.192
		c-0.295,1.601-1.079,2.788-2.757,3.206h-0.852c-0.844-0.199-1.525-0.646-2.02-1.359c-0.421-0.608-0.674-1.286-0.742-2.022
		c-0.023-0.252-0.122-0.355-0.367-0.289c-0.211,0.059-0.423,0.117-0.627,0.196c-1.774,0.692-3.599,0.803-5.46,0.477
		c-1.344-0.236-2.627-0.657-3.827-1.312c-0.167-0.091-0.333-0.254-0.412-0.424c-0.236-0.518,0.069-1.042,0.649-1.151
		c1.016-0.192,1.967-0.538,2.787-1.183c0.719-0.565,1.324-1.226,1.427-2.185c0.099-0.923,0.189-1.851,0.214-2.777
		c0.036-1.309-0.023-2.62,0.015-3.93C5.218,10.284,5.641,8.8,6.384,7.429c2.252-4.154,5.857-6.385,10.421-7.217
		C17.326,0.117,17.854,0.069,18.379,0H20.507z M27.54,20.821c0.643-0.577,1.312-1.107,1.898-1.716
		c3.214-3.331,3.57-8.375,0.885-12.145c-1.663-2.335-3.917-3.839-6.63-4.682c-2.305-0.716-4.652-0.826-7.018-0.366
		C13.93,2.447,11.53,3.655,9.601,5.705c-1.935,2.056-2.888,4.489-2.82,7.337c0.039,1.626-0.032,3.257-0.101,4.883
		c-0.035,0.813-0.167,1.622-0.587,2.352c-0.603,1.045-1.48,1.797-2.518,2.381c-0.094,0.054-0.188,0.107-0.282,0.161
		c0.004,0.023,0.009,0.047,0.014,0.071c0.457,0.098,0.911,0.214,1.372,0.291c1.523,0.259,3.03,0.204,4.471-0.392
		c0.522-0.216,1.036-0.35,1.593-0.317c0.162,0.01,0.22-0.068,0.289-0.203c0.214-0.415,0.409-0.853,0.695-1.216
		c0.901-1.147,2.349-1.448,3.596-0.759c0.868,0.479,1.375,1.261,1.661,2.188c0.056,0.183,0.136,0.253,0.322,0.269
		c1.642,0.142,3.277,0.104,4.909-0.122c0.153-0.021,0.218-0.086,0.281-0.227c0.173-0.387,0.33-0.792,0.575-1.131
		c0.726-1.003,1.692-1.518,2.963-1.283C26.589,20.092,27.053,20.386,27.54,20.821 M26.598,23.864
		c-0.094-0.271-0.147-0.564-0.291-0.807c-0.395-0.668-1.243-0.67-1.656-0.013c-0.323,0.515-0.331,1.056-0.032,1.585
		c0.186,0.33,0.477,0.53,0.864,0.528c0.4-0.004,0.693-0.216,0.866-0.564C26.457,24.377,26.509,24.134,26.598,23.864 M15.029,23.87
		c0.024-0.01,0.047-0.02,0.071-0.029c-0.117-0.288-0.186-0.609-0.359-0.858c-0.417-0.597-1.158-0.565-1.578,0.031
		c-0.349,0.499-0.348,1.202,0.001,1.697c0.4,0.563,1.083,0.606,1.54,0.089C14.938,24.537,15.034,24.22,15.029,23.87"/>
	<path clip-path="url(#SVGID_2_)" fill-rule="evenodd" clip-rule="evenodd" fill="#2A3487" d="M14.465,11.08h1.774
		c0.006,0.118,0.016,0.229,0.017,0.339c0.01,0.859-0.037,1.723,0.041,2.576c0.14,1.538,1.372,2.681,2.969,2.843
		c1.401,0.144,2.833-0.796,3.294-2.181c0.096-0.291,0.161-0.604,0.172-0.908c0.026-0.654,0.008-1.311,0.006-1.966
		c0-0.052-0.013-0.104-0.023-0.183h-0.852c0.626-0.607,1.218-1.182,1.804-1.751c0.55,0.55,1.13,1.131,1.731,1.731h-0.842
		c0,0.154,0.004,0.275,0,0.396c-0.031,0.84,0.009,1.689-0.108,2.517c-0.318,2.268-2.465,4.106-4.759,4.146
		c-2.607,0.046-4.707-1.665-5.185-4.228c-0.021-0.112-0.037-0.228-0.037-0.343C14.464,13.08,14.465,12.09,14.465,11.08"/>
	<path clip-path="url(#SVGID_2_)" fill-rule="evenodd" clip-rule="evenodd" fill="#2A3487" d="M14.749,7.648
		c0.006-0.931,0.776-1.685,1.707-1.673c0.924,0.013,1.685,0.769,1.688,1.678c0.003,0.912-0.781,1.705-1.693,1.711
		C15.522,9.37,14.742,8.584,14.749,7.648"/>
	<path clip-path="url(#SVGID_2_)" fill-rule="evenodd" clip-rule="evenodd" fill="#2A3487" d="M20.742,7.695
		c-0.027-0.92,0.729-1.701,1.665-1.721c0.911-0.02,1.691,0.732,1.711,1.647c0.02,0.94-0.735,1.724-1.678,1.74
		C21.54,9.378,20.77,8.622,20.742,7.695"/>
</g>
</svg>
